  0
SECTION
  2
HEADER
  9
$ANGBASE
  50
0.0
  9
$ANGDIR
  70
  1
  9
$MEASUREMENT
  70
0
  0
ENDSEC
  0
SECTION
  2
TABLES
  0
TABLE
  2
LTYPE
  70
4
  0
LTYPE
  5
40F
  2
CONTINUOUS
  70
0
  3
Solid line
  72
65
  73
0
  40
0.0
  0
LTYPE
  5
410
  2
DASHDOT
 70
0
  3
Dash Dot ____ _ ____ _
 72
65
 73
4
 40
2.0
 49
1.25
 49
-0.25
 49
0.25
 49
-0.25
  0
LTYPE
  5
411
  2
DASHED
 70
0
  3
Dashed __ __ __ __ __
 72
65
 73
2
 40
0.75
 49
0.5
 49
-0.25
  0
LTYPE
  5
43B
  2
DOTTED
 70
0
  3
Dotted .  .  .  .
 72
65
 73
2
 40
0.2
 49
0.0
 49
-0.2
  0
ENDTAB
  0
TABLE
  2
STYLE
  70
4
  0
STYLE
  2
KICAD
  70
0
  40
0
  41
1
  42
1
  50
0
  71
0
  3
isocp.shx
  0
STYLE
  2
KICADB
  70
0
  40
0
  41
1
  42
1
  50
0
  71
0
  3
isocp.shx
  0
STYLE
  2
KICADI
  70
0
  40
0
  41
1
  42
1
  50
15
  71
0
  3
isocp.shx
  0
STYLE
  2
KICADBI
  70
0
  40
0
  41
1
  42
1
  50
15
  71
0
  3
isocp.shx
  0
ENDTAB
  0
TABLE
  2
LAYER
  70
30
  0
LAYER
  2
BLACK
  70
0
  62
7
  6
CONTINUOUS
  0
LAYER
  2
GRAY1
  70
0
  62
251
  6
CONTINUOUS
  0
LAYER
  2
GRAY2
  70
0
  62
8
  6
CONTINUOUS
  0
LAYER
  2
GRAY3
  70
0
  62
9
  6
CONTINUOUS
  0
LAYER
  2
WHITE
  70
0
  62
7
  6
CONTINUOUS
  0
LAYER
  2
LYELLOW
  70
0
  62
51
  6
CONTINUOUS
  0
LAYER
  2
BLUE1
  70
0
  62
178
  6
CONTINUOUS
  0
LAYER
  2
GREEN1
  70
0
  62
98
  6
CONTINUOUS
  0
LAYER
  2
CYAN1
  70
0
  62
138
  6
CONTINUOUS
  0
LAYER
  2
RED1
  70
0
  62
18
  6
CONTINUOUS
  0
LAYER
  2
MAGENTA1
  70
0
  62
228
  6
CONTINUOUS
  0
LAYER
  2
BROWN1
  70
0
  62
58
  6
CONTINUOUS
  0
LAYER
  2
BLUE2
  70
0
  62
5
  6
CONTINUOUS
  0
LAYER
  2
GREEN2
  70
0
  62
3
  6
CONTINUOUS
  0
LAYER
  2
CYAN2
  70
0
  62
4
  6
CONTINUOUS
  0
LAYER
  2
RED2
  70
0
  62
1
  6
CONTINUOUS
  0
LAYER
  2
MAGENTA2
  70
0
  62
6
  6
CONTINUOUS
  0
LAYER
  2
BROWN2
  70
0
  62
54
  6
CONTINUOUS
  0
LAYER
  2
BLUE3
  70
0
  62
171
  6
CONTINUOUS
  0
LAYER
  2
GREEN3
  70
0
  62
91
  6
CONTINUOUS
  0
LAYER
  2
CYAN3
  70
0
  62
131
  6
CONTINUOUS
  0
LAYER
  2
RED3
  70
0
  62
11
  6
CONTINUOUS
  0
LAYER
  2
MAGENTA3
  70
0
  62
221
  6
CONTINUOUS
  0
LAYER
  2
YELLOW3
  70
0
  62
2
  6
CONTINUOUS
  0
LAYER
  2
BLUE4
  70
0
  62
5
  6
CONTINUOUS
  0
LAYER
  2
GREEN4
  70
0
  62
3
  6
CONTINUOUS
  0
LAYER
  2
CYAN4
  70
0
  62
4
  6
CONTINUOUS
  0
LAYER
  2
RED4
  70
0
  62
1
  6
CONTINUOUS
  0
LAYER
  2
MAGENTA4
  70
0
  62
6
  6
CONTINUOUS
  0
LAYER
  2
YELLOW4
  70
0
  62
2
  6
CONTINUOUS
  0
ENDTAB
  0
ENDSEC
  0
SECTION
  2
ENTITIES
0
LINE
8
BLACK
6
CONTINUOUS
10
132.747
20
-105.716
11
132.92
21
-105.787
0
LINE
8
BLACK
6
CONTINUOUS
10
132.92
20
-105.787
11
132.92
21
-105.787
0
LINE
8
BLACK
6
CONTINUOUS
10
132.92
20
-105.787
11
133.076
21
-105.891
0
LINE
8
BLACK
6
CONTINUOUS
10
133.076
20
-105.891
11
133.209
21
-106.024
0
LINE
8
BLACK
6
CONTINUOUS
10
133.209
20
-106.024
11
133.209
21
-106.024
0
LINE
8
BLACK
6
CONTINUOUS
10
133.209
20
-106.024
11
133.313
21
-106.18
0
LINE
8
BLACK
6
CONTINUOUS
10
133.313
20
-106.18
11
133.384
21
-106.353
0
LINE
8
BLACK
6
CONTINUOUS
10
133.384
20
-106.353
11
133.421
21
-106.536
0
LINE
8
BLACK
6
CONTINUOUS
10
133.421
20
-106.536
11
133.421
21
-106.724
0
LINE
8
BLACK
6
CONTINUOUS
10
133.421
20
-106.724
11
133.384
21
-106.907
0
LINE
8
BLACK
6
CONTINUOUS
10
133.384
20
-106.907
11
133.313
21
-107.08
0
LINE
8
BLACK
6
CONTINUOUS
10
133.313
20
-107.08
11
133.313
21
-107.08
0
LINE
8
BLACK
6
CONTINUOUS
10
133.313
20
-107.08
11
133.209
21
-107.236
0
LINE
8
BLACK
6
CONTINUOUS
10
133.209
20
-107.236
11
133.076
21
-107.369
0
LINE
8
BLACK
6
CONTINUOUS
10
133.076
20
-107.369
11
132.998
21
-107.421
0
LINE
8
BLACK
6
CONTINUOUS
10
132.998
20
-107.421
11
132.92
21
-107.473
0
LINE
8
BLACK
6
CONTINUOUS
10
132.92
20
-107.473
11
132.747
21
-107.544
0
LINE
8
BLACK
6
CONTINUOUS
10
132.747
20
-107.544
11
132.564
21
-107.581
0
LINE
8
BLACK
6
CONTINUOUS
10
132.564
20
-107.581
11
132.376
21
-107.581
0
LINE
8
BLACK
6
CONTINUOUS
10
132.376
20
-107.581
11
132.193
21
-107.544
0
LINE
8
BLACK
6
CONTINUOUS
10
132.193
20
-107.544
11
132.02
21
-107.473
0
LINE
8
BLACK
6
CONTINUOUS
10
132.02
20
-107.473
11
131.942
21
-107.421
0
LINE
8
BLACK
6
CONTINUOUS
10
131.942
20
-107.421
11
131.864
21
-107.369
0
LINE
8
BLACK
6
CONTINUOUS
10
131.864
20
-107.369
11
131.731
21
-107.236
0
LINE
8
BLACK
6
CONTINUOUS
10
131.731
20
-107.236
11
131.627
21
-107.08
0
LINE
8
BLACK
6
CONTINUOUS
10
131.627
20
-107.08
11
131.627
21
-107.08
0
LINE
8
BLACK
6
CONTINUOUS
10
131.627
20
-107.08
11
131.556
21
-106.907
0
LINE
8
BLACK
6
CONTINUOUS
10
131.556
20
-106.907
11
131.519
21
-106.724
0
LINE
8
BLACK
6
CONTINUOUS
10
131.519
20
-106.724
11
131.519
21
-106.536
0
LINE
8
BLACK
6
CONTINUOUS
10
131.519
20
-106.536
11
131.556
21
-106.353
0
LINE
8
BLACK
6
CONTINUOUS
10
131.556
20
-106.353
11
131.627
21
-106.18
0
LINE
8
BLACK
6
CONTINUOUS
10
131.627
20
-106.18
11
131.731
21
-106.024
0
LINE
8
BLACK
6
CONTINUOUS
10
131.731
20
-106.024
11
131.731
21
-106.024
0
LINE
8
BLACK
6
CONTINUOUS
10
131.731
20
-106.024
11
131.864
21
-105.891
0
LINE
8
BLACK
6
CONTINUOUS
10
131.864
20
-105.891
11
132.02
21
-105.787
0
LINE
8
BLACK
6
CONTINUOUS
10
132.02
20
-105.787
11
132.02
21
-105.787
0
LINE
8
BLACK
6
CONTINUOUS
10
132.02
20
-105.787
11
132.193
21
-105.716
0
LINE
8
BLACK
6
CONTINUOUS
10
132.193
20
-105.716
11
132.376
21
-105.679
0
LINE
8
BLACK
6
CONTINUOUS
10
132.376
20
-105.679
11
132.564
21
-105.679
0
LINE
8
BLACK
6
CONTINUOUS
10
132.564
20
-105.679
11
132.747
21
-105.716
0
LINE
8
BLACK
6
CONTINUOUS
10
130.207
20
-105.716
11
130.38
21
-105.787
0
LINE
8
BLACK
6
CONTINUOUS
10
130.38
20
-105.787
11
130.38
21
-105.787
0
LINE
8
BLACK
6
CONTINUOUS
10
130.38
20
-105.787
11
130.536
21
-105.891
0
LINE
8
BLACK
6
CONTINUOUS
10
130.536
20
-105.891
11
130.669
21
-106.024
0
LINE
8
BLACK
6
CONTINUOUS
10
130.669
20
-106.024
11
130.669
21
-106.024
0
LINE
8
BLACK
6
CONTINUOUS
10
130.669
20
-106.024
11
130.773
21
-106.18
0
LINE
8
BLACK
6
CONTINUOUS
10
130.773
20
-106.18
11
130.844
21
-106.353
0
LINE
8
BLACK
6
CONTINUOUS
10
130.844
20
-106.353
11
130.881
21
-106.536
0
LINE
8
BLACK
6
CONTINUOUS
10
130.881
20
-106.536
11
130.881
21
-106.724
0
LINE
8
BLACK
6
CONTINUOUS
10
130.881
20
-106.724
11
130.844
21
-106.907
0
LINE
8
BLACK
6
CONTINUOUS
10
130.844
20
-106.907
11
130.773
21
-107.08
0
LINE
8
BLACK
6
CONTINUOUS
10
130.773
20
-107.08
11
130.773
21
-107.08
0
LINE
8
BLACK
6
CONTINUOUS
10
130.773
20
-107.08
11
130.669
21
-107.236
0
LINE
8
BLACK
6
CONTINUOUS
10
130.669
20
-107.236
11
130.536
21
-107.369
0
LINE
8
BLACK
6
CONTINUOUS
10
130.536
20
-107.369
11
130.458
21
-107.421
0
LINE
8
BLACK
6
CONTINUOUS
10
130.458
20
-107.421
11
130.38
21
-107.473
0
LINE
8
BLACK
6
CONTINUOUS
10
130.38
20
-107.473
11
130.207
21
-107.544
0
LINE
8
BLACK
6
CONTINUOUS
10
130.207
20
-107.544
11
130.024
21
-107.581
0
LINE
8
BLACK
6
CONTINUOUS
10
130.024
20
-107.581
11
129.836
21
-107.581
0
LINE
8
BLACK
6
CONTINUOUS
10
129.836
20
-107.581
11
129.653
21
-107.544
0
LINE
8
BLACK
6
CONTINUOUS
10
129.653
20
-107.544
11
129.48
21
-107.473
0
LINE
8
BLACK
6
CONTINUOUS
10
129.48
20
-107.473
11
129.402
21
-107.421
0
LINE
8
BLACK
6
CONTINUOUS
10
129.402
20
-107.421
11
129.324
21
-107.369
0
LINE
8
BLACK
6
CONTINUOUS
10
129.324
20
-107.369
11
129.191
21
-107.236
0
LINE
8
BLACK
6
CONTINUOUS
10
129.191
20
-107.236
11
129.087
21
-107.08
0
LINE
8
BLACK
6
CONTINUOUS
10
129.087
20
-107.08
11
129.087
21
-107.08
0
LINE
8
BLACK
6
CONTINUOUS
10
129.087
20
-107.08
11
129.016
21
-106.907
0
LINE
8
BLACK
6
CONTINUOUS
10
129.016
20
-106.907
11
128.979
21
-106.724
0
LINE
8
BLACK
6
CONTINUOUS
10
128.979
20
-106.724
11
128.979
21
-106.536
0
LINE
8
BLACK
6
CONTINUOUS
10
128.979
20
-106.536
11
129.016
21
-106.353
0
LINE
8
BLACK
6
CONTINUOUS
10
129.016
20
-106.353
11
129.087
21
-106.18
0
LINE
8
BLACK
6
CONTINUOUS
10
129.087
20
-106.18
11
129.191
21
-106.024
0
LINE
8
BLACK
6
CONTINUOUS
10
129.191
20
-106.024
11
129.191
21
-106.024
0
LINE
8
BLACK
6
CONTINUOUS
10
129.191
20
-106.024
11
129.324
21
-105.891
0
LINE
8
BLACK
6
CONTINUOUS
10
129.324
20
-105.891
11
129.48
21
-105.787
0
LINE
8
BLACK
6
CONTINUOUS
10
129.48
20
-105.787
11
129.48
21
-105.787
0
LINE
8
BLACK
6
CONTINUOUS
10
129.48
20
-105.787
11
129.653
21
-105.716
0
LINE
8
BLACK
6
CONTINUOUS
10
129.653
20
-105.716
11
129.836
21
-105.679
0
LINE
8
BLACK
6
CONTINUOUS
10
129.836
20
-105.679
11
130.024
21
-105.679
0
LINE
8
BLACK
6
CONTINUOUS
10
130.024
20
-105.679
11
130.207
21
-105.716
0
LINE
8
BLACK
6
CONTINUOUS
10
132.747
20
-103.176
11
132.92
21
-103.247
0
LINE
8
BLACK
6
CONTINUOUS
10
132.92
20
-103.247
11
132.92
21
-103.247
0
LINE
8
BLACK
6
CONTINUOUS
10
132.92
20
-103.247
11
133.076
21
-103.351
0
LINE
8
BLACK
6
CONTINUOUS
10
133.076
20
-103.351
11
133.209
21
-103.484
0
LINE
8
BLACK
6
CONTINUOUS
10
133.209
20
-103.484
11
133.209
21
-103.484
0
LINE
8
BLACK
6
CONTINUOUS
10
133.209
20
-103.484
11
133.313
21
-103.64
0
LINE
8
BLACK
6
CONTINUOUS
10
133.313
20
-103.64
11
133.384
21
-103.813
0
LINE
8
BLACK
6
CONTINUOUS
10
133.384
20
-103.813
11
133.421
21
-103.996
0
LINE
8
BLACK
6
CONTINUOUS
10
133.421
20
-103.996
11
133.421
21
-104.184
0
LINE
8
BLACK
6
CONTINUOUS
10
133.421
20
-104.184
11
133.384
21
-104.367
0
LINE
8
BLACK
6
CONTINUOUS
10
133.384
20
-104.367
11
133.313
21
-104.54
0
LINE
8
BLACK
6
CONTINUOUS
10
133.313
20
-104.54
11
133.313
21
-104.54
0
LINE
8
BLACK
6
CONTINUOUS
10
133.313
20
-104.54
11
133.209
21
-104.696
0
LINE
8
BLACK
6
CONTINUOUS
10
133.209
20
-104.696
11
133.076
21
-104.829
0
LINE
8
BLACK
6
CONTINUOUS
10
133.076
20
-104.829
11
132.998
21
-104.881
0
LINE
8
BLACK
6
CONTINUOUS
10
132.998
20
-104.881
11
132.92
21
-104.933
0
LINE
8
BLACK
6
CONTINUOUS
10
132.92
20
-104.933
11
132.747
21
-105.004
0
LINE
8
BLACK
6
CONTINUOUS
10
132.747
20
-105.004
11
132.564
21
-105.041
0
LINE
8
BLACK
6
CONTINUOUS
10
132.564
20
-105.041
11
132.376
21
-105.041
0
LINE
8
BLACK
6
CONTINUOUS
10
132.376
20
-105.041
11
132.193
21
-105.004
0
LINE
8
BLACK
6
CONTINUOUS
10
132.193
20
-105.004
11
132.02
21
-104.933
0
LINE
8
BLACK
6
CONTINUOUS
10
132.02
20
-104.933
11
131.942
21
-104.881
0
LINE
8
BLACK
6
CONTINUOUS
10
131.942
20
-104.881
11
131.864
21
-104.829
0
LINE
8
BLACK
6
CONTINUOUS
10
131.864
20
-104.829
11
131.731
21
-104.696
0
LINE
8
BLACK
6
CONTINUOUS
10
131.731
20
-104.696
11
131.627
21
-104.54
0
LINE
8
BLACK
6
CONTINUOUS
10
131.627
20
-104.54
11
131.627
21
-104.54
0
LINE
8
BLACK
6
CONTINUOUS
10
131.627
20
-104.54
11
131.556
21
-104.367
0
LINE
8
BLACK
6
CONTINUOUS
10
131.556
20
-104.367
11
131.519
21
-104.184
0
LINE
8
BLACK
6
CONTINUOUS
10
131.519
20
-104.184
11
131.519
21
-103.996
0
LINE
8
BLACK
6
CONTINUOUS
10
131.519
20
-103.996
11
131.556
21
-103.813
0
LINE
8
BLACK
6
CONTINUOUS
10
131.556
20
-103.813
11
131.627
21
-103.64
0
LINE
8
BLACK
6
CONTINUOUS
10
131.627
20
-103.64
11
131.731
21
-103.484
0
LINE
8
BLACK
6
CONTINUOUS
10
131.731
20
-103.484
11
131.731
21
-103.484
0
LINE
8
BLACK
6
CONTINUOUS
10
131.731
20
-103.484
11
131.864
21
-103.351
0
LINE
8
BLACK
6
CONTINUOUS
10
131.864
20
-103.351
11
132.02
21
-103.247
0
LINE
8
BLACK
6
CONTINUOUS
10
132.02
20
-103.247
11
132.02
21
-103.247
0
LINE
8
BLACK
6
CONTINUOUS
10
132.02
20
-103.247
11
132.193
21
-103.176
0
LINE
8
BLACK
6
CONTINUOUS
10
132.193
20
-103.176
11
132.376
21
-103.139
0
LINE
8
BLACK
6
CONTINUOUS
10
132.376
20
-103.139
11
132.564
21
-103.139
0
LINE
8
BLACK
6
CONTINUOUS
10
132.564
20
-103.139
11
132.747
21
-103.176
0
LINE
8
BLACK
6
CONTINUOUS
10
130.207
20
-103.176
11
130.38
21
-103.247
0
LINE
8
BLACK
6
CONTINUOUS
10
130.38
20
-103.247
11
130.38
21
-103.247
0
LINE
8
BLACK
6
CONTINUOUS
10
130.38
20
-103.247
11
130.536
21
-103.351
0
LINE
8
BLACK
6
CONTINUOUS
10
130.536
20
-103.351
11
130.669
21
-103.484
0
LINE
8
BLACK
6
CONTINUOUS
10
130.669
20
-103.484
11
130.669
21
-103.484
0
LINE
8
BLACK
6
CONTINUOUS
10
130.669
20
-103.484
11
130.773
21
-103.64
0
LINE
8
BLACK
6
CONTINUOUS
10
130.773
20
-103.64
11
130.844
21
-103.813
0
LINE
8
BLACK
6
CONTINUOUS
10
130.844
20
-103.813
11
130.881
21
-103.996
0
LINE
8
BLACK
6
CONTINUOUS
10
130.881
20
-103.996
11
130.881
21
-104.184
0
LINE
8
BLACK
6
CONTINUOUS
10
130.881
20
-104.184
11
130.844
21
-104.367
0
LINE
8
BLACK
6
CONTINUOUS
10
130.844
20
-104.367
11
130.773
21
-104.54
0
LINE
8
BLACK
6
CONTINUOUS
10
130.773
20
-104.54
11
130.773
21
-104.54
0
LINE
8
BLACK
6
CONTINUOUS
10
130.773
20
-104.54
11
130.669
21
-104.696
0
LINE
8
BLACK
6
CONTINUOUS
10
130.669
20
-104.696
11
130.536
21
-104.829
0
LINE
8
BLACK
6
CONTINUOUS
10
130.536
20
-104.829
11
130.458
21
-104.881
0
LINE
8
BLACK
6
CONTINUOUS
10
130.458
20
-104.881
11
130.38
21
-104.933
0
LINE
8
BLACK
6
CONTINUOUS
10
130.38
20
-104.933
11
130.207
21
-105.004
0
LINE
8
BLACK
6
CONTINUOUS
10
130.207
20
-105.004
11
130.024
21
-105.041
0
LINE
8
BLACK
6
CONTINUOUS
10
130.024
20
-105.041
11
129.836
21
-105.041
0
LINE
8
BLACK
6
CONTINUOUS
10
129.836
20
-105.041
11
129.653
21
-105.004
0
LINE
8
BLACK
6
CONTINUOUS
10
129.653
20
-105.004
11
129.48
21
-104.933
0
LINE
8
BLACK
6
CONTINUOUS
10
129.48
20
-104.933
11
129.402
21
-104.881
0
LINE
8
BLACK
6
CONTINUOUS
10
129.402
20
-104.881
11
129.324
21
-104.829
0
LINE
8
BLACK
6
CONTINUOUS
10
129.324
20
-104.829
11
129.191
21
-104.696
0
LINE
8
BLACK
6
CONTINUOUS
10
129.191
20
-104.696
11
129.087
21
-104.54
0
LINE
8
BLACK
6
CONTINUOUS
10
129.087
20
-104.54
11
129.087
21
-104.54
0
LINE
8
BLACK
6
CONTINUOUS
10
129.087
20
-104.54
11
129.016
21
-104.367
0
LINE
8
BLACK
6
CONTINUOUS
10
129.016
20
-104.367
11
128.979
21
-104.184
0
LINE
8
BLACK
6
CONTINUOUS
10
128.979
20
-104.184
11
128.979
21
-103.996
0
LINE
8
BLACK
6
CONTINUOUS
10
128.979
20
-103.996
11
129.016
21
-103.813
0
LINE
8
BLACK
6
CONTINUOUS
10
129.016
20
-103.813
11
129.087
21
-103.64
0
LINE
8
BLACK
6
CONTINUOUS
10
129.087
20
-103.64
11
129.191
21
-103.484
0
LINE
8
BLACK
6
CONTINUOUS
10
129.191
20
-103.484
11
129.191
21
-103.484
0
LINE
8
BLACK
6
CONTINUOUS
10
129.191
20
-103.484
11
129.324
21
-103.351
0
LINE
8
BLACK
6
CONTINUOUS
10
129.324
20
-103.351
11
129.48
21
-103.247
0
LINE
8
BLACK
6
CONTINUOUS
10
129.48
20
-103.247
11
129.48
21
-103.247
0
LINE
8
BLACK
6
CONTINUOUS
10
129.48
20
-103.247
11
129.653
21
-103.176
0
LINE
8
BLACK
6
CONTINUOUS
10
129.653
20
-103.176
11
129.836
21
-103.139
0
LINE
8
BLACK
6
CONTINUOUS
10
129.836
20
-103.139
11
130.024
21
-103.139
0
LINE
8
BLACK
6
CONTINUOUS
10
130.024
20
-103.139
11
130.207
21
-103.176
0
LINE
8
BLACK
6
CONTINUOUS
10
132.747
20
-100.636
11
132.92
21
-100.707
0
LINE
8
BLACK
6
CONTINUOUS
10
132.92
20
-100.707
11
132.92
21
-100.707
0
LINE
8
BLACK
6
CONTINUOUS
10
132.92
20
-100.707
11
133.076
21
-100.811
0
LINE
8
BLACK
6
CONTINUOUS
10
133.076
20
-100.811
11
133.209
21
-100.944
0
LINE
8
BLACK
6
CONTINUOUS
10
133.209
20
-100.944
11
133.209
21
-100.944
0
LINE
8
BLACK
6
CONTINUOUS
10
133.209
20
-100.944
11
133.313
21
-101.1
0
LINE
8
BLACK
6
CONTINUOUS
10
133.313
20
-101.1
11
133.384
21
-101.273
0
LINE
8
BLACK
6
CONTINUOUS
10
133.384
20
-101.273
11
133.421
21
-101.456
0
LINE
8
BLACK
6
CONTINUOUS
10
133.421
20
-101.456
11
133.421
21
-101.644
0
LINE
8
BLACK
6
CONTINUOUS
10
133.421
20
-101.644
11
133.384
21
-101.827
0
LINE
8
BLACK
6
CONTINUOUS
10
133.384
20
-101.827
11
133.313
21
-102
0
LINE
8
BLACK
6
CONTINUOUS
10
133.313
20
-102
11
133.313
21
-102
0
LINE
8
BLACK
6
CONTINUOUS
10
133.313
20
-102
11
133.209
21
-102.156
0
LINE
8
BLACK
6
CONTINUOUS
10
133.209
20
-102.156
11
133.076
21
-102.289
0
LINE
8
BLACK
6
CONTINUOUS
10
133.076
20
-102.289
11
133.025
21
-102.323
0
LINE
8
BLACK
6
CONTINUOUS
10
133.025
20
-102.323
11
132.92
21
-102.393
0
LINE
8
BLACK
6
CONTINUOUS
10
132.92
20
-102.393
11
132.747
21
-102.464
0
LINE
8
BLACK
6
CONTINUOUS
10
132.747
20
-102.464
11
132.564
21
-102.501
0
LINE
8
BLACK
6
CONTINUOUS
10
132.564
20
-102.501
11
132.376
21
-102.501
0
LINE
8
BLACK
6
CONTINUOUS
10
132.376
20
-102.501
11
132.193
21
-102.464
0
LINE
8
BLACK
6
CONTINUOUS
10
132.193
20
-102.464
11
132.02
21
-102.393
0
LINE
8
BLACK
6
CONTINUOUS
10
132.02
20
-102.393
11
131.915
21
-102.323
0
LINE
8
BLACK
6
CONTINUOUS
10
131.915
20
-102.323
11
131.864
21
-102.289
0
LINE
8
BLACK
6
CONTINUOUS
10
131.864
20
-102.289
11
131.731
21
-102.156
0
LINE
8
BLACK
6
CONTINUOUS
10
131.731
20
-102.156
11
131.627
21
-102
0
LINE
8
BLACK
6
CONTINUOUS
10
131.627
20
-102
11
131.627
21
-102
0
LINE
8
BLACK
6
CONTINUOUS
10
131.627
20
-102
11
131.556
21
-101.827
0
LINE
8
BLACK
6
CONTINUOUS
10
131.556
20
-101.827
11
131.519
21
-101.644
0
LINE
8
BLACK
6
CONTINUOUS
10
131.519
20
-101.644
11
131.519
21
-101.456
0
LINE
8
BLACK
6
CONTINUOUS
10
131.519
20
-101.456
11
131.556
21
-101.273
0
LINE
8
BLACK
6
CONTINUOUS
10
131.556
20
-101.273
11
131.627
21
-101.1
0
LINE
8
BLACK
6
CONTINUOUS
10
131.627
20
-101.1
11
131.731
21
-100.944
0
LINE
8
BLACK
6
CONTINUOUS
10
131.731
20
-100.944
11
131.731
21
-100.944
0
LINE
8
BLACK
6
CONTINUOUS
10
131.731
20
-100.944
11
131.864
21
-100.811
0
LINE
8
BLACK
6
CONTINUOUS
10
131.864
20
-100.811
11
132.02
21
-100.707
0
LINE
8
BLACK
6
CONTINUOUS
10
132.02
20
-100.707
11
132.02
21
-100.707
0
LINE
8
BLACK
6
CONTINUOUS
10
132.02
20
-100.707
11
132.193
21
-100.636
0
LINE
8
BLACK
6
CONTINUOUS
10
132.193
20
-100.636
11
132.376
21
-100.599
0
LINE
8
BLACK
6
CONTINUOUS
10
132.376
20
-100.599
11
132.564
21
-100.599
0
LINE
8
BLACK
6
CONTINUOUS
10
132.564
20
-100.599
11
132.747
21
-100.636
0
LINE
8
BLACK
6
CONTINUOUS
10
130.207
20
-100.636
11
130.38
21
-100.707
0
LINE
8
BLACK
6
CONTINUOUS
10
130.38
20
-100.707
11
130.38
21
-100.707
0
LINE
8
BLACK
6
CONTINUOUS
10
130.38
20
-100.707
11
130.536
21
-100.811
0
LINE
8
BLACK
6
CONTINUOUS
10
130.536
20
-100.811
11
130.669
21
-100.944
0
LINE
8
BLACK
6
CONTINUOUS
10
130.669
20
-100.944
11
130.669
21
-100.944
0
LINE
8
BLACK
6
CONTINUOUS
10
130.669
20
-100.944
11
130.773
21
-101.1
0
LINE
8
BLACK
6
CONTINUOUS
10
130.773
20
-101.1
11
130.844
21
-101.273
0
LINE
8
BLACK
6
CONTINUOUS
10
130.844
20
-101.273
11
130.881
21
-101.456
0
LINE
8
BLACK
6
CONTINUOUS
10
130.881
20
-101.456
11
130.881
21
-101.644
0
LINE
8
BLACK
6
CONTINUOUS
10
130.881
20
-101.644
11
130.844
21
-101.827
0
LINE
8
BLACK
6
CONTINUOUS
10
130.844
20
-101.827
11
130.773
21
-102
0
LINE
8
BLACK
6
CONTINUOUS
10
130.773
20
-102
11
130.773
21
-102
0
LINE
8
BLACK
6
CONTINUOUS
10
130.773
20
-102
11
130.669
21
-102.156
0
LINE
8
BLACK
6
CONTINUOUS
10
130.669
20
-102.156
11
130.536
21
-102.289
0
LINE
8
BLACK
6
CONTINUOUS
10
130.536
20
-102.289
11
130.485
21
-102.323
0
LINE
8
BLACK
6
CONTINUOUS
10
130.485
20
-102.323
11
130.38
21
-102.393
0
LINE
8
BLACK
6
CONTINUOUS
10
130.38
20
-102.393
11
130.207
21
-102.464
0
LINE
8
BLACK
6
CONTINUOUS
10
130.207
20
-102.464
11
130.024
21
-102.501
0
LINE
8
BLACK
6
CONTINUOUS
10
130.024
20
-102.501
11
129.836
21
-102.501
0
LINE
8
BLACK
6
CONTINUOUS
10
129.836
20
-102.501
11
129.653
21
-102.464
0
LINE
8
BLACK
6
CONTINUOUS
10
129.653
20
-102.464
11
129.48
21
-102.393
0
LINE
8
BLACK
6
CONTINUOUS
10
129.48
20
-102.393
11
129.375
21
-102.323
0
LINE
8
BLACK
6
CONTINUOUS
10
129.375
20
-102.323
11
129.324
21
-102.289
0
LINE
8
BLACK
6
CONTINUOUS
10
129.324
20
-102.289
11
129.191
21
-102.156
0
LINE
8
BLACK
6
CONTINUOUS
10
129.191
20
-102.156
11
129.087
21
-102
0
LINE
8
BLACK
6
CONTINUOUS
10
129.087
20
-102
11
129.087
21
-102
0
LINE
8
BLACK
6
CONTINUOUS
10
129.087
20
-102
11
129.016
21
-101.827
0
LINE
8
BLACK
6
CONTINUOUS
10
129.016
20
-101.827
11
128.979
21
-101.644
0
LINE
8
BLACK
6
CONTINUOUS
10
128.979
20
-101.644
11
128.979
21
-101.456
0
LINE
8
BLACK
6
CONTINUOUS
10
128.979
20
-101.456
11
129.016
21
-101.273
0
LINE
8
BLACK
6
CONTINUOUS
10
129.016
20
-101.273
11
129.087
21
-101.1
0
LINE
8
BLACK
6
CONTINUOUS
10
129.087
20
-101.1
11
129.191
21
-100.944
0
LINE
8
BLACK
6
CONTINUOUS
10
129.191
20
-100.944
11
129.191
21
-100.944
0
LINE
8
BLACK
6
CONTINUOUS
10
129.191
20
-100.944
11
129.324
21
-100.811
0
LINE
8
BLACK
6
CONTINUOUS
10
129.324
20
-100.811
11
129.48
21
-100.707
0
LINE
8
BLACK
6
CONTINUOUS
10
129.48
20
-100.707
11
129.48
21
-100.707
0
LINE
8
BLACK
6
CONTINUOUS
10
129.48
20
-100.707
11
129.653
21
-100.636
0
LINE
8
BLACK
6
CONTINUOUS
10
129.653
20
-100.636
11
129.836
21
-100.599
0
LINE
8
BLACK
6
CONTINUOUS
10
129.836
20
-100.599
11
130.024
21
-100.599
0
LINE
8
BLACK
6
CONTINUOUS
10
130.024
20
-100.599
11
130.207
21
-100.636
0
LINE
8
BLACK
6
CONTINUOUS
10
120.947
20
-100.566
11
121.12
21
-100.637
0
LINE
8
BLACK
6
CONTINUOUS
10
121.12
20
-100.637
11
121.12
21
-100.637
0
LINE
8
BLACK
6
CONTINUOUS
10
121.12
20
-100.637
11
121.276
21
-100.741
0
LINE
8
BLACK
6
CONTINUOUS
10
121.276
20
-100.741
11
121.409
21
-100.874
0
LINE
8
BLACK
6
CONTINUOUS
10
121.409
20
-100.874
11
121.409
21
-100.874
0
LINE
8
BLACK
6
CONTINUOUS
10
121.409
20
-100.874
11
121.513
21
-101.03
0
LINE
8
BLACK
6
CONTINUOUS
10
121.513
20
-101.03
11
121.584
21
-101.203
0
LINE
8
BLACK
6
CONTINUOUS
10
121.584
20
-101.203
11
121.621
21
-101.386
0
LINE
8
BLACK
6
CONTINUOUS
10
121.621
20
-101.386
11
121.621
21
-101.574
0
LINE
8
BLACK
6
CONTINUOUS
10
121.621
20
-101.574
11
121.584
21
-101.757
0
LINE
8
BLACK
6
CONTINUOUS
10
121.584
20
-101.757
11
121.513
21
-101.93
0
LINE
8
BLACK
6
CONTINUOUS
10
121.513
20
-101.93
11
121.513
21
-101.93
0
LINE
8
BLACK
6
CONTINUOUS
10
121.513
20
-101.93
11
121.409
21
-102.086
0
LINE
8
BLACK
6
CONTINUOUS
10
121.409
20
-102.086
11
121.276
21
-102.219
0
LINE
8
BLACK
6
CONTINUOUS
10
121.276
20
-102.219
11
121.198
21
-102.271
0
LINE
8
BLACK
6
CONTINUOUS
10
121.198
20
-102.271
11
121.12
21
-102.323
0
LINE
8
BLACK
6
CONTINUOUS
10
121.12
20
-102.323
11
120.947
21
-102.394
0
LINE
8
BLACK
6
CONTINUOUS
10
120.947
20
-102.394
11
120.764
21
-102.431
0
LINE
8
BLACK
6
CONTINUOUS
10
120.764
20
-102.431
11
120.576
21
-102.431
0
LINE
8
BLACK
6
CONTINUOUS
10
120.576
20
-102.431
11
120.393
21
-102.394
0
LINE
8
BLACK
6
CONTINUOUS
10
120.393
20
-102.394
11
120.22
21
-102.323
0
LINE
8
BLACK
6
CONTINUOUS
10
120.22
20
-102.323
11
120.142
21
-102.271
0
LINE
8
BLACK
6
CONTINUOUS
10
120.142
20
-102.271
11
120.064
21
-102.219
0
LINE
8
BLACK
6
CONTINUOUS
10
120.064
20
-102.219
11
119.931
21
-102.086
0
LINE
8
BLACK
6
CONTINUOUS
10
119.931
20
-102.086
11
119.827
21
-101.93
0
LINE
8
BLACK
6
CONTINUOUS
10
119.827
20
-101.93
11
119.827
21
-101.93
0
LINE
8
BLACK
6
CONTINUOUS
10
119.827
20
-101.93
11
119.756
21
-101.757
0
LINE
8
BLACK
6
CONTINUOUS
10
119.756
20
-101.757
11
119.719
21
-101.574
0
LINE
8
BLACK
6
CONTINUOUS
10
119.719
20
-101.574
11
119.719
21
-101.386
0
LINE
8
BLACK
6
CONTINUOUS
10
119.719
20
-101.386
11
119.756
21
-101.203
0
LINE
8
BLACK
6
CONTINUOUS
10
119.756
20
-101.203
11
119.827
21
-101.03
0
LINE
8
BLACK
6
CONTINUOUS
10
119.827
20
-101.03
11
119.931
21
-100.874
0
LINE
8
BLACK
6
CONTINUOUS
10
119.931
20
-100.874
11
119.931
21
-100.874
0
LINE
8
BLACK
6
CONTINUOUS
10
119.931
20
-100.874
11
120.064
21
-100.741
0
LINE
8
BLACK
6
CONTINUOUS
10
120.064
20
-100.741
11
120.22
21
-100.637
0
LINE
8
BLACK
6
CONTINUOUS
10
120.22
20
-100.637
11
120.22
21
-100.637
0
LINE
8
BLACK
6
CONTINUOUS
10
120.22
20
-100.637
11
120.393
21
-100.566
0
LINE
8
BLACK
6
CONTINUOUS
10
120.393
20
-100.566
11
120.576
21
-100.529
0
LINE
8
BLACK
6
CONTINUOUS
10
120.576
20
-100.529
11
120.764
21
-100.529
0
LINE
8
BLACK
6
CONTINUOUS
10
120.764
20
-100.529
11
120.947
21
-100.566
0
LINE
8
BLACK
6
CONTINUOUS
10
118.407
20
-100.566
11
118.58
21
-100.637
0
LINE
8
BLACK
6
CONTINUOUS
10
118.58
20
-100.637
11
118.58
21
-100.637
0
LINE
8
BLACK
6
CONTINUOUS
10
118.58
20
-100.637
11
118.736
21
-100.741
0
LINE
8
BLACK
6
CONTINUOUS
10
118.736
20
-100.741
11
118.869
21
-100.874
0
LINE
8
BLACK
6
CONTINUOUS
10
118.869
20
-100.874
11
118.869
21
-100.874
0
LINE
8
BLACK
6
CONTINUOUS
10
118.869
20
-100.874
11
118.973
21
-101.03
0
LINE
8
BLACK
6
CONTINUOUS
10
118.973
20
-101.03
11
119.044
21
-101.203
0
LINE
8
BLACK
6
CONTINUOUS
10
119.044
20
-101.203
11
119.081
21
-101.386
0
LINE
8
BLACK
6
CONTINUOUS
10
119.081
20
-101.386
11
119.081
21
-101.574
0
LINE
8
BLACK
6
CONTINUOUS
10
119.081
20
-101.574
11
119.044
21
-101.757
0
LINE
8
BLACK
6
CONTINUOUS
10
119.044
20
-101.757
11
118.973
21
-101.93
0
LINE
8
BLACK
6
CONTINUOUS
10
118.973
20
-101.93
11
118.973
21
-101.93
0
LINE
8
BLACK
6
CONTINUOUS
10
118.973
20
-101.93
11
118.869
21
-102.086
0
LINE
8
BLACK
6
CONTINUOUS
10
118.869
20
-102.086
11
118.736
21
-102.219
0
LINE
8
BLACK
6
CONTINUOUS
10
118.736
20
-102.219
11
118.658
21
-102.271
0
LINE
8
BLACK
6
CONTINUOUS
10
118.658
20
-102.271
11
118.58
21
-102.323
0
LINE
8
BLACK
6
CONTINUOUS
10
118.58
20
-102.323
11
118.407
21
-102.394
0
LINE
8
BLACK
6
CONTINUOUS
10
118.407
20
-102.394
11
118.224
21
-102.431
0
LINE
8
BLACK
6
CONTINUOUS
10
118.224
20
-102.431
11
118.036
21
-102.431
0
LINE
8
BLACK
6
CONTINUOUS
10
118.036
20
-102.431
11
117.853
21
-102.394
0
LINE
8
BLACK
6
CONTINUOUS
10
117.853
20
-102.394
11
117.68
21
-102.323
0
LINE
8
BLACK
6
CONTINUOUS
10
117.68
20
-102.323
11
117.602
21
-102.271
0
LINE
8
BLACK
6
CONTINUOUS
10
117.602
20
-102.271
11
117.524
21
-102.219
0
LINE
8
BLACK
6
CONTINUOUS
10
117.524
20
-102.219
11
117.391
21
-102.086
0
LINE
8
BLACK
6
CONTINUOUS
10
117.391
20
-102.086
11
117.287
21
-101.93
0
LINE
8
BLACK
6
CONTINUOUS
10
117.287
20
-101.93
11
117.287
21
-101.93
0
LINE
8
BLACK
6
CONTINUOUS
10
117.287
20
-101.93
11
117.216
21
-101.757
0
LINE
8
BLACK
6
CONTINUOUS
10
117.216
20
-101.757
11
117.179
21
-101.574
0
LINE
8
BLACK
6
CONTINUOUS
10
117.179
20
-101.574
11
117.179
21
-101.386
0
LINE
8
BLACK
6
CONTINUOUS
10
117.179
20
-101.386
11
117.216
21
-101.203
0
LINE
8
BLACK
6
CONTINUOUS
10
117.216
20
-101.203
11
117.287
21
-101.03
0
LINE
8
BLACK
6
CONTINUOUS
10
117.287
20
-101.03
11
117.391
21
-100.874
0
LINE
8
BLACK
6
CONTINUOUS
10
117.391
20
-100.874
11
117.391
21
-100.874
0
LINE
8
BLACK
6
CONTINUOUS
10
117.391
20
-100.874
11
117.524
21
-100.741
0
LINE
8
BLACK
6
CONTINUOUS
10
117.524
20
-100.741
11
117.68
21
-100.637
0
LINE
8
BLACK
6
CONTINUOUS
10
117.68
20
-100.637
11
117.68
21
-100.637
0
LINE
8
BLACK
6
CONTINUOUS
10
117.68
20
-100.637
11
117.853
21
-100.566
0
LINE
8
BLACK
6
CONTINUOUS
10
117.853
20
-100.566
11
118.036
21
-100.529
0
LINE
8
BLACK
6
CONTINUOUS
10
118.036
20
-100.529
11
118.224
21
-100.529
0
LINE
8
BLACK
6
CONTINUOUS
10
118.224
20
-100.529
11
118.407
21
-100.566
0
LINE
8
BLACK
6
CONTINUOUS
10
132.747
20
-98.0955
11
132.92
21
-98.1672
0
LINE
8
BLACK
6
CONTINUOUS
10
132.92
20
-98.1672
11
132.92
21
-98.1672
0
LINE
8
BLACK
6
CONTINUOUS
10
132.92
20
-98.1672
11
133.076
21
-98.2713
0
LINE
8
BLACK
6
CONTINUOUS
10
133.076
20
-98.2713
11
133.209
21
-98.4038
0
LINE
8
BLACK
6
CONTINUOUS
10
133.209
20
-98.4038
11
133.209
21
-98.4038
0
LINE
8
BLACK
6
CONTINUOUS
10
133.209
20
-98.4038
11
133.313
21
-98.5595
0
LINE
8
BLACK
6
CONTINUOUS
10
133.313
20
-98.5595
11
133.384
21
-98.7326
0
LINE
8
BLACK
6
CONTINUOUS
10
133.384
20
-98.7326
11
133.421
21
-98.9163
0
LINE
8
BLACK
6
CONTINUOUS
10
133.421
20
-98.9163
11
133.421
21
-99.1037
0
LINE
8
BLACK
6
CONTINUOUS
10
133.421
20
-99.1037
11
133.384
21
-99.2874
0
LINE
8
BLACK
6
CONTINUOUS
10
133.384
20
-99.2874
11
133.313
21
-99.4605
0
LINE
8
BLACK
6
CONTINUOUS
10
133.313
20
-99.4605
11
133.313
21
-99.4605
0
LINE
8
BLACK
6
CONTINUOUS
10
133.313
20
-99.4605
11
133.209
21
-99.6162
0
LINE
8
BLACK
6
CONTINUOUS
10
133.209
20
-99.6162
11
133.076
21
-99.7487
0
LINE
8
BLACK
6
CONTINUOUS
10
133.076
20
-99.7487
11
133.025
21
-99.7828
0
LINE
8
BLACK
6
CONTINUOUS
10
133.025
20
-99.7828
11
132.92
21
-99.8528
0
LINE
8
BLACK
6
CONTINUOUS
10
132.92
20
-99.8528
11
132.747
21
-99.9245
0
LINE
8
BLACK
6
CONTINUOUS
10
132.747
20
-99.9245
11
132.564
21
-99.961
0
LINE
8
BLACK
6
CONTINUOUS
10
132.564
20
-99.961
11
132.376
21
-99.961
0
LINE
8
BLACK
6
CONTINUOUS
10
132.376
20
-99.961
11
132.193
21
-99.9245
0
LINE
8
BLACK
6
CONTINUOUS
10
132.193
20
-99.9245
11
132.02
21
-99.8528
0
LINE
8
BLACK
6
CONTINUOUS
10
132.02
20
-99.8528
11
131.915
21
-99.7828
0
LINE
8
BLACK
6
CONTINUOUS
10
131.915
20
-99.7828
11
131.864
21
-99.7487
0
LINE
8
BLACK
6
CONTINUOUS
10
131.864
20
-99.7487
11
131.731
21
-99.6162
0
LINE
8
BLACK
6
CONTINUOUS
10
131.731
20
-99.6162
11
131.627
21
-99.4605
0
LINE
8
BLACK
6
CONTINUOUS
10
131.627
20
-99.4605
11
131.627
21
-99.4605
0
LINE
8
BLACK
6
CONTINUOUS
10
131.627
20
-99.4605
11
131.556
21
-99.2874
0
LINE
8
BLACK
6
CONTINUOUS
10
131.556
20
-99.2874
11
131.519
21
-99.1037
0
LINE
8
BLACK
6
CONTINUOUS
10
131.519
20
-99.1037
11
131.519
21
-98.9163
0
LINE
8
BLACK
6
CONTINUOUS
10
131.519
20
-98.9163
11
131.556
21
-98.7326
0
LINE
8
BLACK
6
CONTINUOUS
10
131.556
20
-98.7326
11
131.627
21
-98.5595
0
LINE
8
BLACK
6
CONTINUOUS
10
131.627
20
-98.5595
11
131.731
21
-98.4038
0
LINE
8
BLACK
6
CONTINUOUS
10
131.731
20
-98.4038
11
131.731
21
-98.4038
0
LINE
8
BLACK
6
CONTINUOUS
10
131.731
20
-98.4038
11
131.864
21
-98.2713
0
LINE
8
BLACK
6
CONTINUOUS
10
131.864
20
-98.2713
11
132.02
21
-98.1672
0
LINE
8
BLACK
6
CONTINUOUS
10
132.02
20
-98.1672
11
132.02
21
-98.1672
0
LINE
8
BLACK
6
CONTINUOUS
10
132.02
20
-98.1672
11
132.193
21
-98.0955
0
LINE
8
BLACK
6
CONTINUOUS
10
132.193
20
-98.0955
11
132.376
21
-98.059
0
LINE
8
BLACK
6
CONTINUOUS
10
132.376
20
-98.059
11
132.564
21
-98.059
0
LINE
8
BLACK
6
CONTINUOUS
10
132.564
20
-98.059
11
132.747
21
-98.0955
0
LINE
8
BLACK
6
CONTINUOUS
10
130.207
20
-98.0955
11
130.38
21
-98.1672
0
LINE
8
BLACK
6
CONTINUOUS
10
130.38
20
-98.1672
11
130.38
21
-98.1672
0
LINE
8
BLACK
6
CONTINUOUS
10
130.38
20
-98.1672
11
130.536
21
-98.2713
0
LINE
8
BLACK
6
CONTINUOUS
10
130.536
20
-98.2713
11
130.669
21
-98.4038
0
LINE
8
BLACK
6
CONTINUOUS
10
130.669
20
-98.4038
11
130.669
21
-98.4038
0
LINE
8
BLACK
6
CONTINUOUS
10
130.669
20
-98.4038
11
130.773
21
-98.5595
0
LINE
8
BLACK
6
CONTINUOUS
10
130.773
20
-98.5595
11
130.844
21
-98.7326
0
LINE
8
BLACK
6
CONTINUOUS
10
130.844
20
-98.7326
11
130.881
21
-98.9163
0
LINE
8
BLACK
6
CONTINUOUS
10
130.881
20
-98.9163
11
130.881
21
-99.1037
0
LINE
8
BLACK
6
CONTINUOUS
10
130.881
20
-99.1037
11
130.844
21
-99.2874
0
LINE
8
BLACK
6
CONTINUOUS
10
130.844
20
-99.2874
11
130.773
21
-99.4605
0
LINE
8
BLACK
6
CONTINUOUS
10
130.773
20
-99.4605
11
130.773
21
-99.4605
0
LINE
8
BLACK
6
CONTINUOUS
10
130.773
20
-99.4605
11
130.669
21
-99.6162
0
LINE
8
BLACK
6
CONTINUOUS
10
130.669
20
-99.6162
11
130.536
21
-99.7487
0
LINE
8
BLACK
6
CONTINUOUS
10
130.536
20
-99.7487
11
130.485
21
-99.7828
0
LINE
8
BLACK
6
CONTINUOUS
10
130.485
20
-99.7828
11
130.38
21
-99.8528
0
LINE
8
BLACK
6
CONTINUOUS
10
130.38
20
-99.8528
11
130.207
21
-99.9245
0
LINE
8
BLACK
6
CONTINUOUS
10
130.207
20
-99.9245
11
130.024
21
-99.961
0
LINE
8
BLACK
6
CONTINUOUS
10
130.024
20
-99.961
11
129.836
21
-99.961
0
LINE
8
BLACK
6
CONTINUOUS
10
129.836
20
-99.961
11
129.653
21
-99.9245
0
LINE
8
BLACK
6
CONTINUOUS
10
129.653
20
-99.9245
11
129.48
21
-99.8528
0
LINE
8
BLACK
6
CONTINUOUS
10
129.48
20
-99.8528
11
129.375
21
-99.7828
0
LINE
8
BLACK
6
CONTINUOUS
10
129.375
20
-99.7828
11
129.324
21
-99.7487
0
LINE
8
BLACK
6
CONTINUOUS
10
129.324
20
-99.7487
11
129.191
21
-99.6162
0
LINE
8
BLACK
6
CONTINUOUS
10
129.191
20
-99.6162
11
129.087
21
-99.4605
0
LINE
8
BLACK
6
CONTINUOUS
10
129.087
20
-99.4605
11
129.087
21
-99.4605
0
LINE
8
BLACK
6
CONTINUOUS
10
129.087
20
-99.4605
11
129.016
21
-99.2874
0
LINE
8
BLACK
6
CONTINUOUS
10
129.016
20
-99.2874
11
128.979
21
-99.1037
0
LINE
8
BLACK
6
CONTINUOUS
10
128.979
20
-99.1037
11
128.979
21
-98.9163
0
LINE
8
BLACK
6
CONTINUOUS
10
128.979
20
-98.9163
11
129.016
21
-98.7326
0
LINE
8
BLACK
6
CONTINUOUS
10
129.016
20
-98.7326
11
129.087
21
-98.5595
0
LINE
8
BLACK
6
CONTINUOUS
10
129.087
20
-98.5595
11
129.191
21
-98.4038
0
LINE
8
BLACK
6
CONTINUOUS
10
129.191
20
-98.4038
11
129.191
21
-98.4038
0
LINE
8
BLACK
6
CONTINUOUS
10
129.191
20
-98.4038
11
129.324
21
-98.2713
0
LINE
8
BLACK
6
CONTINUOUS
10
129.324
20
-98.2713
11
129.48
21
-98.1672
0
LINE
8
BLACK
6
CONTINUOUS
10
129.48
20
-98.1672
11
129.48
21
-98.1672
0
LINE
8
BLACK
6
CONTINUOUS
10
129.48
20
-98.1672
11
129.653
21
-98.0955
0
LINE
8
BLACK
6
CONTINUOUS
10
129.653
20
-98.0955
11
129.836
21
-98.059
0
LINE
8
BLACK
6
CONTINUOUS
10
129.836
20
-98.059
11
130.024
21
-98.059
0
LINE
8
BLACK
6
CONTINUOUS
10
130.024
20
-98.059
11
130.207
21
-98.0955
0
LINE
8
BLACK
6
CONTINUOUS
10
120.947
20
-98.0255
11
121.12
21
-98.0972
0
LINE
8
BLACK
6
CONTINUOUS
10
121.12
20
-98.0972
11
121.12
21
-98.0972
0
LINE
8
BLACK
6
CONTINUOUS
10
121.12
20
-98.0972
11
121.276
21
-98.2013
0
LINE
8
BLACK
6
CONTINUOUS
10
121.276
20
-98.2013
11
121.409
21
-98.3338
0
LINE
8
BLACK
6
CONTINUOUS
10
121.409
20
-98.3338
11
121.409
21
-98.3338
0
LINE
8
BLACK
6
CONTINUOUS
10
121.409
20
-98.3338
11
121.513
21
-98.4895
0
LINE
8
BLACK
6
CONTINUOUS
10
121.513
20
-98.4895
11
121.584
21
-98.6626
0
LINE
8
BLACK
6
CONTINUOUS
10
121.584
20
-98.6626
11
121.621
21
-98.8463
0
LINE
8
BLACK
6
CONTINUOUS
10
121.621
20
-98.8463
11
121.621
21
-99.0337
0
LINE
8
BLACK
6
CONTINUOUS
10
121.621
20
-99.0337
11
121.584
21
-99.2174
0
LINE
8
BLACK
6
CONTINUOUS
10
121.584
20
-99.2174
11
121.513
21
-99.3905
0
LINE
8
BLACK
6
CONTINUOUS
10
121.513
20
-99.3905
11
121.513
21
-99.3905
0
LINE
8
BLACK
6
CONTINUOUS
10
121.513
20
-99.3905
11
121.409
21
-99.5462
0
LINE
8
BLACK
6
CONTINUOUS
10
121.409
20
-99.5462
11
121.276
21
-99.6787
0
LINE
8
BLACK
6
CONTINUOUS
10
121.276
20
-99.6787
11
121.198
21
-99.7311
0
LINE
8
BLACK
6
CONTINUOUS
10
121.198
20
-99.7311
11
121.12
21
-99.7828
0
LINE
8
BLACK
6
CONTINUOUS
10
121.12
20
-99.7828
11
120.947
21
-99.8545
0
LINE
8
BLACK
6
CONTINUOUS
10
120.947
20
-99.8545
11
120.764
21
-99.891
0
LINE
8
BLACK
6
CONTINUOUS
10
120.764
20
-99.891
11
120.576
21
-99.891
0
LINE
8
BLACK
6
CONTINUOUS
10
120.576
20
-99.891
11
120.393
21
-99.8545
0
LINE
8
BLACK
6
CONTINUOUS
10
120.393
20
-99.8545
11
120.22
21
-99.7828
0
LINE
8
BLACK
6
CONTINUOUS
10
120.22
20
-99.7828
11
120.142
21
-99.7311
0
LINE
8
BLACK
6
CONTINUOUS
10
120.142
20
-99.7311
11
120.064
21
-99.6787
0
LINE
8
BLACK
6
CONTINUOUS
10
120.064
20
-99.6787
11
119.931
21
-99.5462
0
LINE
8
BLACK
6
CONTINUOUS
10
119.931
20
-99.5462
11
119.827
21
-99.3905
0
LINE
8
BLACK
6
CONTINUOUS
10
119.827
20
-99.3905
11
119.827
21
-99.3905
0
LINE
8
BLACK
6
CONTINUOUS
10
119.827
20
-99.3905
11
119.756
21
-99.2174
0
LINE
8
BLACK
6
CONTINUOUS
10
119.756
20
-99.2174
11
119.719
21
-99.0337
0
LINE
8
BLACK
6
CONTINUOUS
10
119.719
20
-99.0337
11
119.719
21
-98.8463
0
LINE
8
BLACK
6
CONTINUOUS
10
119.719
20
-98.8463
11
119.756
21
-98.6626
0
LINE
8
BLACK
6
CONTINUOUS
10
119.756
20
-98.6626
11
119.827
21
-98.4895
0
LINE
8
BLACK
6
CONTINUOUS
10
119.827
20
-98.4895
11
119.931
21
-98.3338
0
LINE
8
BLACK
6
CONTINUOUS
10
119.931
20
-98.3338
11
119.931
21
-98.3338
0
LINE
8
BLACK
6
CONTINUOUS
10
119.931
20
-98.3338
11
120.064
21
-98.2013
0
LINE
8
BLACK
6
CONTINUOUS
10
120.064
20
-98.2013
11
120.22
21
-98.0972
0
LINE
8
BLACK
6
CONTINUOUS
10
120.22
20
-98.0972
11
120.22
21
-98.0972
0
LINE
8
BLACK
6
CONTINUOUS
10
120.22
20
-98.0972
11
120.393
21
-98.0255
0
LINE
8
BLACK
6
CONTINUOUS
10
120.393
20
-98.0255
11
120.576
21
-97.989
0
LINE
8
BLACK
6
CONTINUOUS
10
120.576
20
-97.989
11
120.764
21
-97.989
0
LINE
8
BLACK
6
CONTINUOUS
10
120.764
20
-97.989
11
120.947
21
-98.0255
0
LINE
8
BLACK
6
CONTINUOUS
10
118.407
20
-98.0255
11
118.58
21
-98.0972
0
LINE
8
BLACK
6
CONTINUOUS
10
118.58
20
-98.0972
11
118.58
21
-98.0972
0
LINE
8
BLACK
6
CONTINUOUS
10
118.58
20
-98.0972
11
118.736
21
-98.2013
0
LINE
8
BLACK
6
CONTINUOUS
10
118.736
20
-98.2013
11
118.869
21
-98.3338
0
LINE
8
BLACK
6
CONTINUOUS
10
118.869
20
-98.3338
11
118.869
21
-98.3338
0
LINE
8
BLACK
6
CONTINUOUS
10
118.869
20
-98.3338
11
118.973
21
-98.4895
0
LINE
8
BLACK
6
CONTINUOUS
10
118.973
20
-98.4895
11
119.044
21
-98.6626
0
LINE
8
BLACK
6
CONTINUOUS
10
119.044
20
-98.6626
11
119.081
21
-98.8463
0
LINE
8
BLACK
6
CONTINUOUS
10
119.081
20
-98.8463
11
119.081
21
-99.0337
0
LINE
8
BLACK
6
CONTINUOUS
10
119.081
20
-99.0337
11
119.044
21
-99.2174
0
LINE
8
BLACK
6
CONTINUOUS
10
119.044
20
-99.2174
11
118.973
21
-99.3905
0
LINE
8
BLACK
6
CONTINUOUS
10
118.973
20
-99.3905
11
118.973
21
-99.3905
0
LINE
8
BLACK
6
CONTINUOUS
10
118.973
20
-99.3905
11
118.869
21
-99.5462
0
LINE
8
BLACK
6
CONTINUOUS
10
118.869
20
-99.5462
11
118.736
21
-99.6787
0
LINE
8
BLACK
6
CONTINUOUS
10
118.736
20
-99.6787
11
118.658
21
-99.7311
0
LINE
8
BLACK
6
CONTINUOUS
10
118.658
20
-99.7311
11
118.58
21
-99.7828
0
LINE
8
BLACK
6
CONTINUOUS
10
118.58
20
-99.7828
11
118.407
21
-99.8545
0
LINE
8
BLACK
6
CONTINUOUS
10
118.407
20
-99.8545
11
118.224
21
-99.891
0
LINE
8
BLACK
6
CONTINUOUS
10
118.224
20
-99.891
11
118.036
21
-99.891
0
LINE
8
BLACK
6
CONTINUOUS
10
118.036
20
-99.891
11
117.853
21
-99.8545
0
LINE
8
BLACK
6
CONTINUOUS
10
117.853
20
-99.8545
11
117.68
21
-99.7828
0
LINE
8
BLACK
6
CONTINUOUS
10
117.68
20
-99.7828
11
117.602
21
-99.7311
0
LINE
8
BLACK
6
CONTINUOUS
10
117.602
20
-99.7311
11
117.524
21
-99.6787
0
LINE
8
BLACK
6
CONTINUOUS
10
117.524
20
-99.6787
11
117.391
21
-99.5462
0
LINE
8
BLACK
6
CONTINUOUS
10
117.391
20
-99.5462
11
117.287
21
-99.3905
0
LINE
8
BLACK
6
CONTINUOUS
10
117.287
20
-99.3905
11
117.287
21
-99.3905
0
LINE
8
BLACK
6
CONTINUOUS
10
117.287
20
-99.3905
11
117.216
21
-99.2174
0
LINE
8
BLACK
6
CONTINUOUS
10
117.216
20
-99.2174
11
117.179
21
-99.0337
0
LINE
8
BLACK
6
CONTINUOUS
10
117.179
20
-99.0337
11
117.179
21
-98.8463
0
LINE
8
BLACK
6
CONTINUOUS
10
117.179
20
-98.8463
11
117.216
21
-98.6626
0
LINE
8
BLACK
6
CONTINUOUS
10
117.216
20
-98.6626
11
117.287
21
-98.4895
0
LINE
8
BLACK
6
CONTINUOUS
10
117.287
20
-98.4895
11
117.391
21
-98.3338
0
LINE
8
BLACK
6
CONTINUOUS
10
117.391
20
-98.3338
11
117.391
21
-98.3338
0
LINE
8
BLACK
6
CONTINUOUS
10
117.391
20
-98.3338
11
117.524
21
-98.2013
0
LINE
8
BLACK
6
CONTINUOUS
10
117.524
20
-98.2013
11
117.68
21
-98.0972
0
LINE
8
BLACK
6
CONTINUOUS
10
117.68
20
-98.0972
11
117.68
21
-98.0972
0
LINE
8
BLACK
6
CONTINUOUS
10
117.68
20
-98.0972
11
117.853
21
-98.0255
0
LINE
8
BLACK
6
CONTINUOUS
10
117.853
20
-98.0255
11
118.036
21
-97.989
0
LINE
8
BLACK
6
CONTINUOUS
10
118.036
20
-97.989
11
118.224
21
-97.989
0
LINE
8
BLACK
6
CONTINUOUS
10
118.224
20
-97.989
11
118.407
21
-98.0255
0
LINE
8
BLACK
6
CONTINUOUS
10
130.207
20
-95.5555
11
130.38
21
-95.6272
0
LINE
8
BLACK
6
CONTINUOUS
10
130.38
20
-95.6272
11
130.38
21
-95.6272
0
LINE
8
BLACK
6
CONTINUOUS
10
130.38
20
-95.6272
11
130.536
21
-95.7313
0
LINE
8
BLACK
6
CONTINUOUS
10
130.536
20
-95.7313
11
130.669
21
-95.8638
0
LINE
8
BLACK
6
CONTINUOUS
10
130.669
20
-95.8638
11
130.669
21
-95.8638
0
LINE
8
BLACK
6
CONTINUOUS
10
130.669
20
-95.8638
11
130.773
21
-96.0195
0
LINE
8
BLACK
6
CONTINUOUS
10
130.773
20
-96.0195
11
130.844
21
-96.1926
0
LINE
8
BLACK
6
CONTINUOUS
10
130.844
20
-96.1926
11
130.881
21
-96.3763
0
LINE
8
BLACK
6
CONTINUOUS
10
130.881
20
-96.3763
11
130.881
21
-96.5637
0
LINE
8
BLACK
6
CONTINUOUS
10
130.881
20
-96.5637
11
130.844
21
-96.7474
0
LINE
8
BLACK
6
CONTINUOUS
10
130.844
20
-96.7474
11
130.773
21
-96.9205
0
LINE
8
BLACK
6
CONTINUOUS
10
130.773
20
-96.9205
11
130.773
21
-96.9205
0
LINE
8
BLACK
6
CONTINUOUS
10
130.773
20
-96.9205
11
130.669
21
-97.0762
0
LINE
8
BLACK
6
CONTINUOUS
10
130.669
20
-97.0762
11
130.536
21
-97.2087
0
LINE
8
BLACK
6
CONTINUOUS
10
130.536
20
-97.2087
11
130.485
21
-97.2428
0
LINE
8
BLACK
6
CONTINUOUS
10
130.485
20
-97.2428
11
130.38
21
-97.3128
0
LINE
8
BLACK
6
CONTINUOUS
10
130.38
20
-97.3128
11
130.207
21
-97.3845
0
LINE
8
BLACK
6
CONTINUOUS
10
130.207
20
-97.3845
11
130.024
21
-97.421
0
LINE
8
BLACK
6
CONTINUOUS
10
130.024
20
-97.421
11
129.836
21
-97.421
0
LINE
8
BLACK
6
CONTINUOUS
10
129.836
20
-97.421
11
129.653
21
-97.3845
0
LINE
8
BLACK
6
CONTINUOUS
10
129.653
20
-97.3845
11
129.48
21
-97.3128
0
LINE
8
BLACK
6
CONTINUOUS
10
129.48
20
-97.3128
11
129.375
21
-97.2428
0
LINE
8
BLACK
6
CONTINUOUS
10
129.375
20
-97.2428
11
129.324
21
-97.2087
0
LINE
8
BLACK
6
CONTINUOUS
10
129.324
20
-97.2087
11
129.191
21
-97.0762
0
LINE
8
BLACK
6
CONTINUOUS
10
129.191
20
-97.0762
11
129.087
21
-96.9205
0
LINE
8
BLACK
6
CONTINUOUS
10
129.087
20
-96.9205
11
129.087
21
-96.9205
0
LINE
8
BLACK
6
CONTINUOUS
10
129.087
20
-96.9205
11
129.016
21
-96.7474
0
LINE
8
BLACK
6
CONTINUOUS
10
129.016
20
-96.7474
11
128.979
21
-96.5637
0
LINE
8
BLACK
6
CONTINUOUS
10
128.979
20
-96.5637
11
128.979
21
-96.3763
0
LINE
8
BLACK
6
CONTINUOUS
10
128.979
20
-96.3763
11
129.016
21
-96.1926
0
LINE
8
BLACK
6
CONTINUOUS
10
129.016
20
-96.1926
11
129.087
21
-96.0195
0
LINE
8
BLACK
6
CONTINUOUS
10
129.087
20
-96.0195
11
129.191
21
-95.8638
0
LINE
8
BLACK
6
CONTINUOUS
10
129.191
20
-95.8638
11
129.191
21
-95.8638
0
LINE
8
BLACK
6
CONTINUOUS
10
129.191
20
-95.8638
11
129.324
21
-95.7313
0
LINE
8
BLACK
6
CONTINUOUS
10
129.324
20
-95.7313
11
129.48
21
-95.6272
0
LINE
8
BLACK
6
CONTINUOUS
10
129.48
20
-95.6272
11
129.48
21
-95.6272
0
LINE
8
BLACK
6
CONTINUOUS
10
129.48
20
-95.6272
11
129.653
21
-95.5555
0
LINE
8
BLACK
6
CONTINUOUS
10
129.653
20
-95.5555
11
129.836
21
-95.519
0
LINE
8
BLACK
6
CONTINUOUS
10
129.836
20
-95.519
11
130.024
21
-95.519
0
LINE
8
BLACK
6
CONTINUOUS
10
130.024
20
-95.519
11
130.207
21
-95.5555
0
LINE
8
BLACK
6
CONTINUOUS
10
132.747
20
-95.5555
11
132.92
21
-95.6272
0
LINE
8
BLACK
6
CONTINUOUS
10
132.92
20
-95.6272
11
132.92
21
-95.6272
0
LINE
8
BLACK
6
CONTINUOUS
10
132.92
20
-95.6272
11
133.076
21
-95.7313
0
LINE
8
BLACK
6
CONTINUOUS
10
133.076
20
-95.7313
11
133.209
21
-95.8638
0
LINE
8
BLACK
6
CONTINUOUS
10
133.209
20
-95.8638
11
133.209
21
-95.8638
0
LINE
8
BLACK
6
CONTINUOUS
10
133.209
20
-95.8638
11
133.313
21
-96.0195
0
LINE
8
BLACK
6
CONTINUOUS
10
133.313
20
-96.0195
11
133.384
21
-96.1926
0
LINE
8
BLACK
6
CONTINUOUS
10
133.384
20
-96.1926
11
133.421
21
-96.3763
0
LINE
8
BLACK
6
CONTINUOUS
10
133.421
20
-96.3763
11
133.421
21
-96.5637
0
LINE
8
BLACK
6
CONTINUOUS
10
133.421
20
-96.5637
11
133.384
21
-96.7474
0
LINE
8
BLACK
6
CONTINUOUS
10
133.384
20
-96.7474
11
133.313
21
-96.9205
0
LINE
8
BLACK
6
CONTINUOUS
10
133.313
20
-96.9205
11
133.313
21
-96.9205
0
LINE
8
BLACK
6
CONTINUOUS
10
133.313
20
-96.9205
11
133.209
21
-97.0762
0
LINE
8
BLACK
6
CONTINUOUS
10
133.209
20
-97.0762
11
133.076
21
-97.2087
0
LINE
8
BLACK
6
CONTINUOUS
10
133.076
20
-97.2087
11
133.025
21
-97.2428
0
LINE
8
BLACK
6
CONTINUOUS
10
133.025
20
-97.2428
11
132.92
21
-97.3128
0
LINE
8
BLACK
6
CONTINUOUS
10
132.92
20
-97.3128
11
132.747
21
-97.3845
0
LINE
8
BLACK
6
CONTINUOUS
10
132.747
20
-97.3845
11
132.564
21
-97.421
0
LINE
8
BLACK
6
CONTINUOUS
10
132.564
20
-97.421
11
132.376
21
-97.421
0
LINE
8
BLACK
6
CONTINUOUS
10
132.376
20
-97.421
11
132.193
21
-97.3845
0
LINE
8
BLACK
6
CONTINUOUS
10
132.193
20
-97.3845
11
132.02
21
-97.3128
0
LINE
8
BLACK
6
CONTINUOUS
10
132.02
20
-97.3128
11
131.915
21
-97.2428
0
LINE
8
BLACK
6
CONTINUOUS
10
131.915
20
-97.2428
11
131.864
21
-97.2087
0
LINE
8
BLACK
6
CONTINUOUS
10
131.864
20
-97.2087
11
131.731
21
-97.0762
0
LINE
8
BLACK
6
CONTINUOUS
10
131.731
20
-97.0762
11
131.627
21
-96.9205
0
LINE
8
BLACK
6
CONTINUOUS
10
131.627
20
-96.9205
11
131.627
21
-96.9205
0
LINE
8
BLACK
6
CONTINUOUS
10
131.627
20
-96.9205
11
131.556
21
-96.7474
0
LINE
8
BLACK
6
CONTINUOUS
10
131.556
20
-96.7474
11
131.519
21
-96.5637
0
LINE
8
BLACK
6
CONTINUOUS
10
131.519
20
-96.5637
11
131.519
21
-96.3763
0
LINE
8
BLACK
6
CONTINUOUS
10
131.519
20
-96.3763
11
131.556
21
-96.1926
0
LINE
8
BLACK
6
CONTINUOUS
10
131.556
20
-96.1926
11
131.627
21
-96.0195
0
LINE
8
BLACK
6
CONTINUOUS
10
131.627
20
-96.0195
11
131.731
21
-95.8638
0
LINE
8
BLACK
6
CONTINUOUS
10
131.731
20
-95.8638
11
131.731
21
-95.8638
0
LINE
8
BLACK
6
CONTINUOUS
10
131.731
20
-95.8638
11
131.864
21
-95.7313
0
LINE
8
BLACK
6
CONTINUOUS
10
131.864
20
-95.7313
11
132.02
21
-95.6272
0
LINE
8
BLACK
6
CONTINUOUS
10
132.02
20
-95.6272
11
132.02
21
-95.6272
0
LINE
8
BLACK
6
CONTINUOUS
10
132.02
20
-95.6272
11
132.193
21
-95.5555
0
LINE
8
BLACK
6
CONTINUOUS
10
132.193
20
-95.5555
11
132.376
21
-95.519
0
LINE
8
BLACK
6
CONTINUOUS
10
132.376
20
-95.519
11
132.564
21
-95.519
0
LINE
8
BLACK
6
CONTINUOUS
10
132.564
20
-95.519
11
132.747
21
-95.5555
0
LINE
8
BLACK
6
CONTINUOUS
10
120.947
20
-95.4855
11
121.12
21
-95.5572
0
LINE
8
BLACK
6
CONTINUOUS
10
121.12
20
-95.5572
11
121.12
21
-95.5572
0
LINE
8
BLACK
6
CONTINUOUS
10
121.12
20
-95.5572
11
121.276
21
-95.6613
0
LINE
8
BLACK
6
CONTINUOUS
10
121.276
20
-95.6613
11
121.409
21
-95.7938
0
LINE
8
BLACK
6
CONTINUOUS
10
121.409
20
-95.7938
11
121.409
21
-95.7938
0
LINE
8
BLACK
6
CONTINUOUS
10
121.409
20
-95.7938
11
121.513
21
-95.9495
0
LINE
8
BLACK
6
CONTINUOUS
10
121.513
20
-95.9495
11
121.584
21
-96.1226
0
LINE
8
BLACK
6
CONTINUOUS
10
121.584
20
-96.1226
11
121.621
21
-96.3063
0
LINE
8
BLACK
6
CONTINUOUS
10
121.621
20
-96.3063
11
121.621
21
-96.4937
0
LINE
8
BLACK
6
CONTINUOUS
10
121.621
20
-96.4937
11
121.584
21
-96.6774
0
LINE
8
BLACK
6
CONTINUOUS
10
121.584
20
-96.6774
11
121.513
21
-96.8505
0
LINE
8
BLACK
6
CONTINUOUS
10
121.513
20
-96.8505
11
121.513
21
-96.8505
0
LINE
8
BLACK
6
CONTINUOUS
10
121.513
20
-96.8505
11
121.409
21
-97.0062
0
LINE
8
BLACK
6
CONTINUOUS
10
121.409
20
-97.0062
11
121.276
21
-97.1387
0
LINE
8
BLACK
6
CONTINUOUS
10
121.276
20
-97.1387
11
121.198
21
-97.1911
0
LINE
8
BLACK
6
CONTINUOUS
10
121.198
20
-97.1911
11
121.12
21
-97.2428
0
LINE
8
BLACK
6
CONTINUOUS
10
121.12
20
-97.2428
11
120.947
21
-97.3145
0
LINE
8
BLACK
6
CONTINUOUS
10
120.947
20
-97.3145
11
120.764
21
-97.351
0
LINE
8
BLACK
6
CONTINUOUS
10
120.764
20
-97.351
11
120.576
21
-97.351
0
LINE
8
BLACK
6
CONTINUOUS
10
120.576
20
-97.351
11
120.393
21
-97.3145
0
LINE
8
BLACK
6
CONTINUOUS
10
120.393
20
-97.3145
11
120.22
21
-97.2428
0
LINE
8
BLACK
6
CONTINUOUS
10
120.22
20
-97.2428
11
120.142
21
-97.1911
0
LINE
8
BLACK
6
CONTINUOUS
10
120.142
20
-97.1911
11
120.064
21
-97.1387
0
LINE
8
BLACK
6
CONTINUOUS
10
120.064
20
-97.1387
11
119.931
21
-97.0062
0
LINE
8
BLACK
6
CONTINUOUS
10
119.931
20
-97.0062
11
119.827
21
-96.8505
0
LINE
8
BLACK
6
CONTINUOUS
10
119.827
20
-96.8505
11
119.827
21
-96.8505
0
LINE
8
BLACK
6
CONTINUOUS
10
119.827
20
-96.8505
11
119.756
21
-96.6774
0
LINE
8
BLACK
6
CONTINUOUS
10
119.756
20
-96.6774
11
119.719
21
-96.4937
0
LINE
8
BLACK
6
CONTINUOUS
10
119.719
20
-96.4937
11
119.719
21
-96.3063
0
LINE
8
BLACK
6
CONTINUOUS
10
119.719
20
-96.3063
11
119.756
21
-96.1226
0
LINE
8
BLACK
6
CONTINUOUS
10
119.756
20
-96.1226
11
119.827
21
-95.9495
0
LINE
8
BLACK
6
CONTINUOUS
10
119.827
20
-95.9495
11
119.931
21
-95.7938
0
LINE
8
BLACK
6
CONTINUOUS
10
119.931
20
-95.7938
11
119.931
21
-95.7938
0
LINE
8
BLACK
6
CONTINUOUS
10
119.931
20
-95.7938
11
120.064
21
-95.6613
0
LINE
8
BLACK
6
CONTINUOUS
10
120.064
20
-95.6613
11
120.22
21
-95.5572
0
LINE
8
BLACK
6
CONTINUOUS
10
120.22
20
-95.5572
11
120.22
21
-95.5572
0
LINE
8
BLACK
6
CONTINUOUS
10
120.22
20
-95.5572
11
120.393
21
-95.4855
0
LINE
8
BLACK
6
CONTINUOUS
10
120.393
20
-95.4855
11
120.576
21
-95.449
0
LINE
8
BLACK
6
CONTINUOUS
10
120.576
20
-95.449
11
120.764
21
-95.449
0
LINE
8
BLACK
6
CONTINUOUS
10
120.764
20
-95.449
11
120.947
21
-95.4855
0
LINE
8
BLACK
6
CONTINUOUS
10
118.407
20
-95.4855
11
118.58
21
-95.5572
0
LINE
8
BLACK
6
CONTINUOUS
10
118.58
20
-95.5572
11
118.58
21
-95.5572
0
LINE
8
BLACK
6
CONTINUOUS
10
118.58
20
-95.5572
11
118.736
21
-95.6613
0
LINE
8
BLACK
6
CONTINUOUS
10
118.736
20
-95.6613
11
118.869
21
-95.7938
0
LINE
8
BLACK
6
CONTINUOUS
10
118.869
20
-95.7938
11
118.869
21
-95.7938
0
LINE
8
BLACK
6
CONTINUOUS
10
118.869
20
-95.7938
11
118.973
21
-95.9495
0
LINE
8
BLACK
6
CONTINUOUS
10
118.973
20
-95.9495
11
119.044
21
-96.1226
0
LINE
8
BLACK
6
CONTINUOUS
10
119.044
20
-96.1226
11
119.081
21
-96.3063
0
LINE
8
BLACK
6
CONTINUOUS
10
119.081
20
-96.3063
11
119.081
21
-96.4937
0
LINE
8
BLACK
6
CONTINUOUS
10
119.081
20
-96.4937
11
119.044
21
-96.6774
0
LINE
8
BLACK
6
CONTINUOUS
10
119.044
20
-96.6774
11
118.973
21
-96.8505
0
LINE
8
BLACK
6
CONTINUOUS
10
118.973
20
-96.8505
11
118.973
21
-96.8505
0
LINE
8
BLACK
6
CONTINUOUS
10
118.973
20
-96.8505
11
118.869
21
-97.0062
0
LINE
8
BLACK
6
CONTINUOUS
10
118.869
20
-97.0062
11
118.736
21
-97.1387
0
LINE
8
BLACK
6
CONTINUOUS
10
118.736
20
-97.1387
11
118.658
21
-97.1911
0
LINE
8
BLACK
6
CONTINUOUS
10
118.658
20
-97.1911
11
118.58
21
-97.2428
0
LINE
8
BLACK
6
CONTINUOUS
10
118.58
20
-97.2428
11
118.407
21
-97.3145
0
LINE
8
BLACK
6
CONTINUOUS
10
118.407
20
-97.3145
11
118.224
21
-97.351
0
LINE
8
BLACK
6
CONTINUOUS
10
118.224
20
-97.351
11
118.036
21
-97.351
0
LINE
8
BLACK
6
CONTINUOUS
10
118.036
20
-97.351
11
117.853
21
-97.3145
0
LINE
8
BLACK
6
CONTINUOUS
10
117.853
20
-97.3145
11
117.68
21
-97.2428
0
LINE
8
BLACK
6
CONTINUOUS
10
117.68
20
-97.2428
11
117.602
21
-97.1911
0
LINE
8
BLACK
6
CONTINUOUS
10
117.602
20
-97.1911
11
117.524
21
-97.1387
0
LINE
8
BLACK
6
CONTINUOUS
10
117.524
20
-97.1387
11
117.391
21
-97.0062
0
LINE
8
BLACK
6
CONTINUOUS
10
117.391
20
-97.0062
11
117.287
21
-96.8505
0
LINE
8
BLACK
6
CONTINUOUS
10
117.287
20
-96.8505
11
117.287
21
-96.8505
0
LINE
8
BLACK
6
CONTINUOUS
10
117.287
20
-96.8505
11
117.216
21
-96.6774
0
LINE
8
BLACK
6
CONTINUOUS
10
117.216
20
-96.6774
11
117.179
21
-96.4937
0
LINE
8
BLACK
6
CONTINUOUS
10
117.179
20
-96.4937
11
117.179
21
-96.3063
0
LINE
8
BLACK
6
CONTINUOUS
10
117.179
20
-96.3063
11
117.216
21
-96.1226
0
LINE
8
BLACK
6
CONTINUOUS
10
117.216
20
-96.1226
11
117.287
21
-95.9495
0
LINE
8
BLACK
6
CONTINUOUS
10
117.287
20
-95.9495
11
117.391
21
-95.7938
0
LINE
8
BLACK
6
CONTINUOUS
10
117.391
20
-95.7938
11
117.391
21
-95.7938
0
LINE
8
BLACK
6
CONTINUOUS
10
117.391
20
-95.7938
11
117.524
21
-95.6613
0
LINE
8
BLACK
6
CONTINUOUS
10
117.524
20
-95.6613
11
117.68
21
-95.5572
0
LINE
8
BLACK
6
CONTINUOUS
10
117.68
20
-95.5572
11
117.68
21
-95.5572
0
LINE
8
BLACK
6
CONTINUOUS
10
117.68
20
-95.5572
11
117.853
21
-95.4855
0
LINE
8
BLACK
6
CONTINUOUS
10
117.853
20
-95.4855
11
118.036
21
-95.449
0
LINE
8
BLACK
6
CONTINUOUS
10
118.036
20
-95.449
11
118.224
21
-95.449
0
LINE
8
BLACK
6
CONTINUOUS
10
118.224
20
-95.449
11
118.407
21
-95.4855
0
LINE
8
BLACK
6
CONTINUOUS
10
132.747
20
-93.0155
11
132.92
21
-93.0872
0
LINE
8
BLACK
6
CONTINUOUS
10
132.92
20
-93.0872
11
132.92
21
-93.0872
0
LINE
8
BLACK
6
CONTINUOUS
10
132.92
20
-93.0872
11
133.076
21
-93.1913
0
LINE
8
BLACK
6
CONTINUOUS
10
133.076
20
-93.1913
11
133.209
21
-93.3238
0
LINE
8
BLACK
6
CONTINUOUS
10
133.209
20
-93.3238
11
133.209
21
-93.3238
0
LINE
8
BLACK
6
CONTINUOUS
10
133.209
20
-93.3238
11
133.313
21
-93.4795
0
LINE
8
BLACK
6
CONTINUOUS
10
133.313
20
-93.4795
11
133.384
21
-93.6526
0
LINE
8
BLACK
6
CONTINUOUS
10
133.384
20
-93.6526
11
133.421
21
-93.8363
0
LINE
8
BLACK
6
CONTINUOUS
10
133.421
20
-93.8363
11
133.421
21
-94.0237
0
LINE
8
BLACK
6
CONTINUOUS
10
133.421
20
-94.0237
11
133.384
21
-94.2074
0
LINE
8
BLACK
6
CONTINUOUS
10
133.384
20
-94.2074
11
133.313
21
-94.3805
0
LINE
8
BLACK
6
CONTINUOUS
10
133.313
20
-94.3805
11
133.313
21
-94.3805
0
LINE
8
BLACK
6
CONTINUOUS
10
133.313
20
-94.3805
11
133.209
21
-94.5362
0
LINE
8
BLACK
6
CONTINUOUS
10
133.209
20
-94.5362
11
133.076
21
-94.6687
0
LINE
8
BLACK
6
CONTINUOUS
10
133.076
20
-94.6687
11
133.025
21
-94.7028
0
LINE
8
BLACK
6
CONTINUOUS
10
133.025
20
-94.7028
11
132.92
21
-94.7728
0
LINE
8
BLACK
6
CONTINUOUS
10
132.92
20
-94.7728
11
132.747
21
-94.8445
0
LINE
8
BLACK
6
CONTINUOUS
10
132.747
20
-94.8445
11
132.564
21
-94.881
0
LINE
8
BLACK
6
CONTINUOUS
10
132.564
20
-94.881
11
132.376
21
-94.881
0
LINE
8
BLACK
6
CONTINUOUS
10
132.376
20
-94.881
11
132.193
21
-94.8445
0
LINE
8
BLACK
6
CONTINUOUS
10
132.193
20
-94.8445
11
132.02
21
-94.7728
0
LINE
8
BLACK
6
CONTINUOUS
10
132.02
20
-94.7728
11
131.915
21
-94.7028
0
LINE
8
BLACK
6
CONTINUOUS
10
131.915
20
-94.7028
11
131.864
21
-94.6687
0
LINE
8
BLACK
6
CONTINUOUS
10
131.864
20
-94.6687
11
131.731
21
-94.5362
0
LINE
8
BLACK
6
CONTINUOUS
10
131.731
20
-94.5362
11
131.627
21
-94.3805
0
LINE
8
BLACK
6
CONTINUOUS
10
131.627
20
-94.3805
11
131.627
21
-94.3805
0
LINE
8
BLACK
6
CONTINUOUS
10
131.627
20
-94.3805
11
131.556
21
-94.2074
0
LINE
8
BLACK
6
CONTINUOUS
10
131.556
20
-94.2074
11
131.519
21
-94.0237
0
LINE
8
BLACK
6
CONTINUOUS
10
131.519
20
-94.0237
11
131.519
21
-93.8363
0
LINE
8
BLACK
6
CONTINUOUS
10
131.519
20
-93.8363
11
131.556
21
-93.6526
0
LINE
8
BLACK
6
CONTINUOUS
10
131.556
20
-93.6526
11
131.627
21
-93.4795
0
LINE
8
BLACK
6
CONTINUOUS
10
131.627
20
-93.4795
11
131.731
21
-93.3238
0
LINE
8
BLACK
6
CONTINUOUS
10
131.731
20
-93.3238
11
131.731
21
-93.3238
0
LINE
8
BLACK
6
CONTINUOUS
10
131.731
20
-93.3238
11
131.864
21
-93.1913
0
LINE
8
BLACK
6
CONTINUOUS
10
131.864
20
-93.1913
11
132.02
21
-93.0872
0
LINE
8
BLACK
6
CONTINUOUS
10
132.02
20
-93.0872
11
132.02
21
-93.0872
0
LINE
8
BLACK
6
CONTINUOUS
10
132.02
20
-93.0872
11
132.193
21
-93.0155
0
LINE
8
BLACK
6
CONTINUOUS
10
132.193
20
-93.0155
11
132.376
21
-92.979
0
LINE
8
BLACK
6
CONTINUOUS
10
132.376
20
-92.979
11
132.564
21
-92.979
0
LINE
8
BLACK
6
CONTINUOUS
10
132.564
20
-92.979
11
132.747
21
-93.0155
0
LINE
8
BLACK
6
CONTINUOUS
10
130.207
20
-93.0155
11
130.38
21
-93.0872
0
LINE
8
BLACK
6
CONTINUOUS
10
130.38
20
-93.0872
11
130.38
21
-93.0872
0
LINE
8
BLACK
6
CONTINUOUS
10
130.38
20
-93.0872
11
130.536
21
-93.1913
0
LINE
8
BLACK
6
CONTINUOUS
10
130.536
20
-93.1913
11
130.669
21
-93.3238
0
LINE
8
BLACK
6
CONTINUOUS
10
130.669
20
-93.3238
11
130.669
21
-93.3238
0
LINE
8
BLACK
6
CONTINUOUS
10
130.669
20
-93.3238
11
130.773
21
-93.4795
0
LINE
8
BLACK
6
CONTINUOUS
10
130.773
20
-93.4795
11
130.844
21
-93.6526
0
LINE
8
BLACK
6
CONTINUOUS
10
130.844
20
-93.6526
11
130.881
21
-93.8363
0
LINE
8
BLACK
6
CONTINUOUS
10
130.881
20
-93.8363
11
130.881
21
-94.0237
0
LINE
8
BLACK
6
CONTINUOUS
10
130.881
20
-94.0237
11
130.844
21
-94.2074
0
LINE
8
BLACK
6
CONTINUOUS
10
130.844
20
-94.2074
11
130.773
21
-94.3805
0
LINE
8
BLACK
6
CONTINUOUS
10
130.773
20
-94.3805
11
130.773
21
-94.3805
0
LINE
8
BLACK
6
CONTINUOUS
10
130.773
20
-94.3805
11
130.669
21
-94.5362
0
LINE
8
BLACK
6
CONTINUOUS
10
130.669
20
-94.5362
11
130.536
21
-94.6687
0
LINE
8
BLACK
6
CONTINUOUS
10
130.536
20
-94.6687
11
130.485
21
-94.7028
0
LINE
8
BLACK
6
CONTINUOUS
10
130.485
20
-94.7028
11
130.38
21
-94.7728
0
LINE
8
BLACK
6
CONTINUOUS
10
130.38
20
-94.7728
11
130.207
21
-94.8445
0
LINE
8
BLACK
6
CONTINUOUS
10
130.207
20
-94.8445
11
130.024
21
-94.881
0
LINE
8
BLACK
6
CONTINUOUS
10
130.024
20
-94.881
11
129.836
21
-94.881
0
LINE
8
BLACK
6
CONTINUOUS
10
129.836
20
-94.881
11
129.653
21
-94.8445
0
LINE
8
BLACK
6
CONTINUOUS
10
129.653
20
-94.8445
11
129.48
21
-94.7728
0
LINE
8
BLACK
6
CONTINUOUS
10
129.48
20
-94.7728
11
129.375
21
-94.7028
0
LINE
8
BLACK
6
CONTINUOUS
10
129.375
20
-94.7028
11
129.324
21
-94.6687
0
LINE
8
BLACK
6
CONTINUOUS
10
129.324
20
-94.6687
11
129.191
21
-94.5362
0
LINE
8
BLACK
6
CONTINUOUS
10
129.191
20
-94.5362
11
129.087
21
-94.3805
0
LINE
8
BLACK
6
CONTINUOUS
10
129.087
20
-94.3805
11
129.087
21
-94.3805
0
LINE
8
BLACK
6
CONTINUOUS
10
129.087
20
-94.3805
11
129.016
21
-94.2074
0
LINE
8
BLACK
6
CONTINUOUS
10
129.016
20
-94.2074
11
128.979
21
-94.0237
0
LINE
8
BLACK
6
CONTINUOUS
10
128.979
20
-94.0237
11
128.979
21
-93.8363
0
LINE
8
BLACK
6
CONTINUOUS
10
128.979
20
-93.8363
11
129.016
21
-93.6526
0
LINE
8
BLACK
6
CONTINUOUS
10
129.016
20
-93.6526
11
129.087
21
-93.4795
0
LINE
8
BLACK
6
CONTINUOUS
10
129.087
20
-93.4795
11
129.191
21
-93.3238
0
LINE
8
BLACK
6
CONTINUOUS
10
129.191
20
-93.3238
11
129.191
21
-93.3238
0
LINE
8
BLACK
6
CONTINUOUS
10
129.191
20
-93.3238
11
129.324
21
-93.1913
0
LINE
8
BLACK
6
CONTINUOUS
10
129.324
20
-93.1913
11
129.48
21
-93.0872
0
LINE
8
BLACK
6
CONTINUOUS
10
129.48
20
-93.0872
11
129.48
21
-93.0872
0
LINE
8
BLACK
6
CONTINUOUS
10
129.48
20
-93.0872
11
129.653
21
-93.0155
0
LINE
8
BLACK
6
CONTINUOUS
10
129.653
20
-93.0155
11
129.836
21
-92.979
0
LINE
8
BLACK
6
CONTINUOUS
10
129.836
20
-92.979
11
130.024
21
-92.979
0
LINE
8
BLACK
6
CONTINUOUS
10
130.024
20
-92.979
11
130.207
21
-93.0155
0
LINE
8
BLACK
6
CONTINUOUS
10
120.947
20
-92.9455
11
121.12
21
-93.0172
0
LINE
8
BLACK
6
CONTINUOUS
10
121.12
20
-93.0172
11
121.12
21
-93.0172
0
LINE
8
BLACK
6
CONTINUOUS
10
121.12
20
-93.0172
11
121.276
21
-93.1213
0
LINE
8
BLACK
6
CONTINUOUS
10
121.276
20
-93.1213
11
121.409
21
-93.2538
0
LINE
8
BLACK
6
CONTINUOUS
10
121.409
20
-93.2538
11
121.409
21
-93.2538
0
LINE
8
BLACK
6
CONTINUOUS
10
121.409
20
-93.2538
11
121.513
21
-93.4095
0
LINE
8
BLACK
6
CONTINUOUS
10
121.513
20
-93.4095
11
121.584
21
-93.5826
0
LINE
8
BLACK
6
CONTINUOUS
10
121.584
20
-93.5826
11
121.621
21
-93.7663
0
LINE
8
BLACK
6
CONTINUOUS
10
121.621
20
-93.7663
11
121.621
21
-93.9537
0
LINE
8
BLACK
6
CONTINUOUS
10
121.621
20
-93.9537
11
121.584
21
-94.1374
0
LINE
8
BLACK
6
CONTINUOUS
10
121.584
20
-94.1374
11
121.513
21
-94.3105
0
LINE
8
BLACK
6
CONTINUOUS
10
121.513
20
-94.3105
11
121.513
21
-94.3105
0
LINE
8
BLACK
6
CONTINUOUS
10
121.513
20
-94.3105
11
121.409
21
-94.4662
0
LINE
8
BLACK
6
CONTINUOUS
10
121.409
20
-94.4662
11
121.276
21
-94.5987
0
LINE
8
BLACK
6
CONTINUOUS
10
121.276
20
-94.5987
11
121.198
21
-94.6511
0
LINE
8
BLACK
6
CONTINUOUS
10
121.198
20
-94.6511
11
121.12
21
-94.7028
0
LINE
8
BLACK
6
CONTINUOUS
10
121.12
20
-94.7028
11
120.947
21
-94.7745
0
LINE
8
BLACK
6
CONTINUOUS
10
120.947
20
-94.7745
11
120.764
21
-94.811
0
LINE
8
BLACK
6
CONTINUOUS
10
120.764
20
-94.811
11
120.576
21
-94.811
0
LINE
8
BLACK
6
CONTINUOUS
10
120.576
20
-94.811
11
120.393
21
-94.7745
0
LINE
8
BLACK
6
CONTINUOUS
10
120.393
20
-94.7745
11
120.22
21
-94.7028
0
LINE
8
BLACK
6
CONTINUOUS
10
120.22
20
-94.7028
11
120.142
21
-94.6511
0
LINE
8
BLACK
6
CONTINUOUS
10
120.142
20
-94.6511
11
120.064
21
-94.5987
0
LINE
8
BLACK
6
CONTINUOUS
10
120.064
20
-94.5987
11
119.931
21
-94.4662
0
LINE
8
BLACK
6
CONTINUOUS
10
119.931
20
-94.4662
11
119.827
21
-94.3105
0
LINE
8
BLACK
6
CONTINUOUS
10
119.827
20
-94.3105
11
119.827
21
-94.3105
0
LINE
8
BLACK
6
CONTINUOUS
10
119.827
20
-94.3105
11
119.756
21
-94.1374
0
LINE
8
BLACK
6
CONTINUOUS
10
119.756
20
-94.1374
11
119.719
21
-93.9537
0
LINE
8
BLACK
6
CONTINUOUS
10
119.719
20
-93.9537
11
119.719
21
-93.7663
0
LINE
8
BLACK
6
CONTINUOUS
10
119.719
20
-93.7663
11
119.756
21
-93.5826
0
LINE
8
BLACK
6
CONTINUOUS
10
119.756
20
-93.5826
11
119.827
21
-93.4095
0
LINE
8
BLACK
6
CONTINUOUS
10
119.827
20
-93.4095
11
119.931
21
-93.2538
0
LINE
8
BLACK
6
CONTINUOUS
10
119.931
20
-93.2538
11
119.931
21
-93.2538
0
LINE
8
BLACK
6
CONTINUOUS
10
119.931
20
-93.2538
11
120.064
21
-93.1213
0
LINE
8
BLACK
6
CONTINUOUS
10
120.064
20
-93.1213
11
120.22
21
-93.0172
0
LINE
8
BLACK
6
CONTINUOUS
10
120.22
20
-93.0172
11
120.22
21
-93.0172
0
LINE
8
BLACK
6
CONTINUOUS
10
120.22
20
-93.0172
11
120.393
21
-92.9455
0
LINE
8
BLACK
6
CONTINUOUS
10
120.393
20
-92.9455
11
120.576
21
-92.909
0
LINE
8
BLACK
6
CONTINUOUS
10
120.576
20
-92.909
11
120.764
21
-92.909
0
LINE
8
BLACK
6
CONTINUOUS
10
120.764
20
-92.909
11
120.947
21
-92.9455
0
LINE
8
BLACK
6
CONTINUOUS
10
118.407
20
-92.9455
11
118.58
21
-93.0172
0
LINE
8
BLACK
6
CONTINUOUS
10
118.58
20
-93.0172
11
118.58
21
-93.0172
0
LINE
8
BLACK
6
CONTINUOUS
10
118.58
20
-93.0172
11
118.736
21
-93.1213
0
LINE
8
BLACK
6
CONTINUOUS
10
118.736
20
-93.1213
11
118.869
21
-93.2538
0
LINE
8
BLACK
6
CONTINUOUS
10
118.869
20
-93.2538
11
118.869
21
-93.2538
0
LINE
8
BLACK
6
CONTINUOUS
10
118.869
20
-93.2538
11
118.973
21
-93.4095
0
LINE
8
BLACK
6
CONTINUOUS
10
118.973
20
-93.4095
11
119.044
21
-93.5826
0
LINE
8
BLACK
6
CONTINUOUS
10
119.044
20
-93.5826
11
119.081
21
-93.7663
0
LINE
8
BLACK
6
CONTINUOUS
10
119.081
20
-93.7663
11
119.081
21
-93.9537
0
LINE
8
BLACK
6
CONTINUOUS
10
119.081
20
-93.9537
11
119.044
21
-94.1374
0
LINE
8
BLACK
6
CONTINUOUS
10
119.044
20
-94.1374
11
118.973
21
-94.3105
0
LINE
8
BLACK
6
CONTINUOUS
10
118.973
20
-94.3105
11
118.973
21
-94.3105
0
LINE
8
BLACK
6
CONTINUOUS
10
118.973
20
-94.3105
11
118.869
21
-94.4662
0
LINE
8
BLACK
6
CONTINUOUS
10
118.869
20
-94.4662
11
118.736
21
-94.5987
0
LINE
8
BLACK
6
CONTINUOUS
10
118.736
20
-94.5987
11
118.658
21
-94.6511
0
LINE
8
BLACK
6
CONTINUOUS
10
118.658
20
-94.6511
11
118.58
21
-94.7028
0
LINE
8
BLACK
6
CONTINUOUS
10
118.58
20
-94.7028
11
118.407
21
-94.7745
0
LINE
8
BLACK
6
CONTINUOUS
10
118.407
20
-94.7745
11
118.224
21
-94.811
0
LINE
8
BLACK
6
CONTINUOUS
10
118.224
20
-94.811
11
118.036
21
-94.811
0
LINE
8
BLACK
6
CONTINUOUS
10
118.036
20
-94.811
11
117.853
21
-94.7745
0
LINE
8
BLACK
6
CONTINUOUS
10
117.853
20
-94.7745
11
117.68
21
-94.7028
0
LINE
8
BLACK
6
CONTINUOUS
10
117.68
20
-94.7028
11
117.602
21
-94.6511
0
LINE
8
BLACK
6
CONTINUOUS
10
117.602
20
-94.6511
11
117.524
21
-94.5987
0
LINE
8
BLACK
6
CONTINUOUS
10
117.524
20
-94.5987
11
117.391
21
-94.4662
0
LINE
8
BLACK
6
CONTINUOUS
10
117.391
20
-94.4662
11
117.287
21
-94.3105
0
LINE
8
BLACK
6
CONTINUOUS
10
117.287
20
-94.3105
11
117.287
21
-94.3105
0
LINE
8
BLACK
6
CONTINUOUS
10
117.287
20
-94.3105
11
117.216
21
-94.1374
0
LINE
8
BLACK
6
CONTINUOUS
10
117.216
20
-94.1374
11
117.179
21
-93.9537
0
LINE
8
BLACK
6
CONTINUOUS
10
117.179
20
-93.9537
11
117.179
21
-93.7663
0
LINE
8
BLACK
6
CONTINUOUS
10
117.179
20
-93.7663
11
117.216
21
-93.5826
0
LINE
8
BLACK
6
CONTINUOUS
10
117.216
20
-93.5826
11
117.287
21
-93.4095
0
LINE
8
BLACK
6
CONTINUOUS
10
117.287
20
-93.4095
11
117.391
21
-93.2538
0
LINE
8
BLACK
6
CONTINUOUS
10
117.391
20
-93.2538
11
117.391
21
-93.2538
0
LINE
8
BLACK
6
CONTINUOUS
10
117.391
20
-93.2538
11
117.524
21
-93.1213
0
LINE
8
BLACK
6
CONTINUOUS
10
117.524
20
-93.1213
11
117.68
21
-93.0172
0
LINE
8
BLACK
6
CONTINUOUS
10
117.68
20
-93.0172
11
117.68
21
-93.0172
0
LINE
8
BLACK
6
CONTINUOUS
10
117.68
20
-93.0172
11
117.853
21
-92.9455
0
LINE
8
BLACK
6
CONTINUOUS
10
117.853
20
-92.9455
11
118.036
21
-92.909
0
LINE
8
BLACK
6
CONTINUOUS
10
118.036
20
-92.909
11
118.224
21
-92.909
0
LINE
8
BLACK
6
CONTINUOUS
10
118.224
20
-92.909
11
118.407
21
-92.9455
0
LINE
8
BLACK
6
CONTINUOUS
10
132.747
20
-90.4755
11
132.92
21
-90.5472
0
LINE
8
BLACK
6
CONTINUOUS
10
132.92
20
-90.5472
11
132.92
21
-90.5472
0
LINE
8
BLACK
6
CONTINUOUS
10
132.92
20
-90.5472
11
133.076
21
-90.6513
0
LINE
8
BLACK
6
CONTINUOUS
10
133.076
20
-90.6513
11
133.209
21
-90.7838
0
LINE
8
BLACK
6
CONTINUOUS
10
133.209
20
-90.7838
11
133.209
21
-90.7838
0
LINE
8
BLACK
6
CONTINUOUS
10
133.209
20
-90.7838
11
133.313
21
-90.9395
0
LINE
8
BLACK
6
CONTINUOUS
10
133.313
20
-90.9395
11
133.384
21
-91.1126
0
LINE
8
BLACK
6
CONTINUOUS
10
133.384
20
-91.1126
11
133.421
21
-91.2963
0
LINE
8
BLACK
6
CONTINUOUS
10
133.421
20
-91.2963
11
133.421
21
-91.4837
0
LINE
8
BLACK
6
CONTINUOUS
10
133.421
20
-91.4837
11
133.384
21
-91.6674
0
LINE
8
BLACK
6
CONTINUOUS
10
133.384
20
-91.6674
11
133.313
21
-91.8405
0
LINE
8
BLACK
6
CONTINUOUS
10
133.313
20
-91.8405
11
133.313
21
-91.8405
0
LINE
8
BLACK
6
CONTINUOUS
10
133.313
20
-91.8405
11
133.209
21
-91.9962
0
LINE
8
BLACK
6
CONTINUOUS
10
133.209
20
-91.9962
11
133.076
21
-92.1287
0
LINE
8
BLACK
6
CONTINUOUS
10
133.076
20
-92.1287
11
133.025
21
-92.1628
0
LINE
8
BLACK
6
CONTINUOUS
10
133.025
20
-92.1628
11
132.92
21
-92.2328
0
LINE
8
BLACK
6
CONTINUOUS
10
132.92
20
-92.2328
11
132.747
21
-92.3045
0
LINE
8
BLACK
6
CONTINUOUS
10
132.747
20
-92.3045
11
132.564
21
-92.341
0
LINE
8
BLACK
6
CONTINUOUS
10
132.564
20
-92.341
11
132.376
21
-92.341
0
LINE
8
BLACK
6
CONTINUOUS
10
132.376
20
-92.341
11
132.193
21
-92.3045
0
LINE
8
BLACK
6
CONTINUOUS
10
132.193
20
-92.3045
11
132.02
21
-92.2328
0
LINE
8
BLACK
6
CONTINUOUS
10
132.02
20
-92.2328
11
131.915
21
-92.1628
0
LINE
8
BLACK
6
CONTINUOUS
10
131.915
20
-92.1628
11
131.864
21
-92.1287
0
LINE
8
BLACK
6
CONTINUOUS
10
131.864
20
-92.1287
11
131.731
21
-91.9962
0
LINE
8
BLACK
6
CONTINUOUS
10
131.731
20
-91.9962
11
131.627
21
-91.8405
0
LINE
8
BLACK
6
CONTINUOUS
10
131.627
20
-91.8405
11
131.627
21
-91.8405
0
LINE
8
BLACK
6
CONTINUOUS
10
131.627
20
-91.8405
11
131.556
21
-91.6674
0
LINE
8
BLACK
6
CONTINUOUS
10
131.556
20
-91.6674
11
131.519
21
-91.4837
0
LINE
8
BLACK
6
CONTINUOUS
10
131.519
20
-91.4837
11
131.519
21
-91.2963
0
LINE
8
BLACK
6
CONTINUOUS
10
131.519
20
-91.2963
11
131.556
21
-91.1126
0
LINE
8
BLACK
6
CONTINUOUS
10
131.556
20
-91.1126
11
131.627
21
-90.9395
0
LINE
8
BLACK
6
CONTINUOUS
10
131.627
20
-90.9395
11
131.731
21
-90.7838
0
LINE
8
BLACK
6
CONTINUOUS
10
131.731
20
-90.7838
11
131.731
21
-90.7838
0
LINE
8
BLACK
6
CONTINUOUS
10
131.731
20
-90.7838
11
131.864
21
-90.6513
0
LINE
8
BLACK
6
CONTINUOUS
10
131.864
20
-90.6513
11
132.02
21
-90.5472
0
LINE
8
BLACK
6
CONTINUOUS
10
132.02
20
-90.5472
11
132.02
21
-90.5472
0
LINE
8
BLACK
6
CONTINUOUS
10
132.02
20
-90.5472
11
132.193
21
-90.4755
0
LINE
8
BLACK
6
CONTINUOUS
10
132.193
20
-90.4755
11
132.376
21
-90.439
0
LINE
8
BLACK
6
CONTINUOUS
10
132.376
20
-90.439
11
132.564
21
-90.439
0
LINE
8
BLACK
6
CONTINUOUS
10
132.564
20
-90.439
11
132.747
21
-90.4755
0
LINE
8
BLACK
6
CONTINUOUS
10
130.207
20
-90.4755
11
130.38
21
-90.5472
0
LINE
8
BLACK
6
CONTINUOUS
10
130.38
20
-90.5472
11
130.38
21
-90.5472
0
LINE
8
BLACK
6
CONTINUOUS
10
130.38
20
-90.5472
11
130.536
21
-90.6513
0
LINE
8
BLACK
6
CONTINUOUS
10
130.536
20
-90.6513
11
130.669
21
-90.7838
0
LINE
8
BLACK
6
CONTINUOUS
10
130.669
20
-90.7838
11
130.669
21
-90.7838
0
LINE
8
BLACK
6
CONTINUOUS
10
130.669
20
-90.7838
11
130.773
21
-90.9395
0
LINE
8
BLACK
6
CONTINUOUS
10
130.773
20
-90.9395
11
130.844
21
-91.1126
0
LINE
8
BLACK
6
CONTINUOUS
10
130.844
20
-91.1126
11
130.881
21
-91.2963
0
LINE
8
BLACK
6
CONTINUOUS
10
130.881
20
-91.2963
11
130.881
21
-91.4837
0
LINE
8
BLACK
6
CONTINUOUS
10
130.881
20
-91.4837
11
130.844
21
-91.6674
0
LINE
8
BLACK
6
CONTINUOUS
10
130.844
20
-91.6674
11
130.773
21
-91.8405
0
LINE
8
BLACK
6
CONTINUOUS
10
130.773
20
-91.8405
11
130.773
21
-91.8405
0
LINE
8
BLACK
6
CONTINUOUS
10
130.773
20
-91.8405
11
130.669
21
-91.9962
0
LINE
8
BLACK
6
CONTINUOUS
10
130.669
20
-91.9962
11
130.536
21
-92.1287
0
LINE
8
BLACK
6
CONTINUOUS
10
130.536
20
-92.1287
11
130.485
21
-92.1628
0
LINE
8
BLACK
6
CONTINUOUS
10
130.485
20
-92.1628
11
130.38
21
-92.2328
0
LINE
8
BLACK
6
CONTINUOUS
10
130.38
20
-92.2328
11
130.207
21
-92.3045
0
LINE
8
BLACK
6
CONTINUOUS
10
130.207
20
-92.3045
11
130.024
21
-92.341
0
LINE
8
BLACK
6
CONTINUOUS
10
130.024
20
-92.341
11
129.836
21
-92.341
0
LINE
8
BLACK
6
CONTINUOUS
10
129.836
20
-92.341
11
129.653
21
-92.3045
0
LINE
8
BLACK
6
CONTINUOUS
10
129.653
20
-92.3045
11
129.48
21
-92.2328
0
LINE
8
BLACK
6
CONTINUOUS
10
129.48
20
-92.2328
11
129.375
21
-92.1628
0
LINE
8
BLACK
6
CONTINUOUS
10
129.375
20
-92.1628
11
129.324
21
-92.1287
0
LINE
8
BLACK
6
CONTINUOUS
10
129.324
20
-92.1287
11
129.191
21
-91.9962
0
LINE
8
BLACK
6
CONTINUOUS
10
129.191
20
-91.9962
11
129.087
21
-91.8405
0
LINE
8
BLACK
6
CONTINUOUS
10
129.087
20
-91.8405
11
129.087
21
-91.8405
0
LINE
8
BLACK
6
CONTINUOUS
10
129.087
20
-91.8405
11
129.016
21
-91.6674
0
LINE
8
BLACK
6
CONTINUOUS
10
129.016
20
-91.6674
11
128.979
21
-91.4837
0
LINE
8
BLACK
6
CONTINUOUS
10
128.979
20
-91.4837
11
128.979
21
-91.2963
0
LINE
8
BLACK
6
CONTINUOUS
10
128.979
20
-91.2963
11
129.016
21
-91.1126
0
LINE
8
BLACK
6
CONTINUOUS
10
129.016
20
-91.1126
11
129.087
21
-90.9395
0
LINE
8
BLACK
6
CONTINUOUS
10
129.087
20
-90.9395
11
129.191
21
-90.7838
0
LINE
8
BLACK
6
CONTINUOUS
10
129.191
20
-90.7838
11
129.191
21
-90.7838
0
LINE
8
BLACK
6
CONTINUOUS
10
129.191
20
-90.7838
11
129.324
21
-90.6513
0
LINE
8
BLACK
6
CONTINUOUS
10
129.324
20
-90.6513
11
129.48
21
-90.5472
0
LINE
8
BLACK
6
CONTINUOUS
10
129.48
20
-90.5472
11
129.48
21
-90.5472
0
LINE
8
BLACK
6
CONTINUOUS
10
129.48
20
-90.5472
11
129.653
21
-90.4755
0
LINE
8
BLACK
6
CONTINUOUS
10
129.653
20
-90.4755
11
129.836
21
-90.439
0
LINE
8
BLACK
6
CONTINUOUS
10
129.836
20
-90.439
11
130.024
21
-90.439
0
LINE
8
BLACK
6
CONTINUOUS
10
130.024
20
-90.439
11
130.207
21
-90.4755
0
LINE
8
BLACK
6
CONTINUOUS
10
119.081
20
-92.271
11
117.179
21
-92.271
0
LINE
8
BLACK
6
CONTINUOUS
10
117.179
20
-92.271
11
117.179
21
-90.369
0
LINE
8
BLACK
6
CONTINUOUS
10
117.179
20
-90.369
11
119.081
21
-90.369
0
LINE
8
BLACK
6
CONTINUOUS
10
119.081
20
-90.369
11
119.081
21
-92.271
0
LINE
8
BLACK
6
CONTINUOUS
10
120.947
20
-90.4055
11
121.12
21
-90.4772
0
LINE
8
BLACK
6
CONTINUOUS
10
121.12
20
-90.4772
11
121.12
21
-90.4772
0
LINE
8
BLACK
6
CONTINUOUS
10
121.12
20
-90.4772
11
121.276
21
-90.5813
0
LINE
8
BLACK
6
CONTINUOUS
10
121.276
20
-90.5813
11
121.409
21
-90.7138
0
LINE
8
BLACK
6
CONTINUOUS
10
121.409
20
-90.7138
11
121.409
21
-90.7138
0
LINE
8
BLACK
6
CONTINUOUS
10
121.409
20
-90.7138
11
121.513
21
-90.8695
0
LINE
8
BLACK
6
CONTINUOUS
10
121.513
20
-90.8695
11
121.584
21
-91.0426
0
LINE
8
BLACK
6
CONTINUOUS
10
121.584
20
-91.0426
11
121.621
21
-91.2263
0
LINE
8
BLACK
6
CONTINUOUS
10
121.621
20
-91.2263
11
121.621
21
-91.4137
0
LINE
8
BLACK
6
CONTINUOUS
10
121.621
20
-91.4137
11
121.584
21
-91.5974
0
LINE
8
BLACK
6
CONTINUOUS
10
121.584
20
-91.5974
11
121.513
21
-91.7705
0
LINE
8
BLACK
6
CONTINUOUS
10
121.513
20
-91.7705
11
121.513
21
-91.7705
0
LINE
8
BLACK
6
CONTINUOUS
10
121.513
20
-91.7705
11
121.409
21
-91.9262
0
LINE
8
BLACK
6
CONTINUOUS
10
121.409
20
-91.9262
11
121.276
21
-92.0587
0
LINE
8
BLACK
6
CONTINUOUS
10
121.276
20
-92.0587
11
121.198
21
-92.1111
0
LINE
8
BLACK
6
CONTINUOUS
10
121.198
20
-92.1111
11
121.12
21
-92.1628
0
LINE
8
BLACK
6
CONTINUOUS
10
121.12
20
-92.1628
11
120.947
21
-92.2345
0
LINE
8
BLACK
6
CONTINUOUS
10
120.947
20
-92.2345
11
120.764
21
-92.271
0
LINE
8
BLACK
6
CONTINUOUS
10
120.764
20
-92.271
11
120.576
21
-92.271
0
LINE
8
BLACK
6
CONTINUOUS
10
120.576
20
-92.271
11
120.393
21
-92.2345
0
LINE
8
BLACK
6
CONTINUOUS
10
120.393
20
-92.2345
11
120.22
21
-92.1628
0
LINE
8
BLACK
6
CONTINUOUS
10
120.22
20
-92.1628
11
120.142
21
-92.1111
0
LINE
8
BLACK
6
CONTINUOUS
10
120.142
20
-92.1111
11
120.064
21
-92.0587
0
LINE
8
BLACK
6
CONTINUOUS
10
120.064
20
-92.0587
11
119.931
21
-91.9262
0
LINE
8
BLACK
6
CONTINUOUS
10
119.931
20
-91.9262
11
119.827
21
-91.7705
0
LINE
8
BLACK
6
CONTINUOUS
10
119.827
20
-91.7705
11
119.827
21
-91.7705
0
LINE
8
BLACK
6
CONTINUOUS
10
119.827
20
-91.7705
11
119.756
21
-91.5974
0
LINE
8
BLACK
6
CONTINUOUS
10
119.756
20
-91.5974
11
119.719
21
-91.4137
0
LINE
8
BLACK
6
CONTINUOUS
10
119.719
20
-91.4137
11
119.719
21
-91.2263
0
LINE
8
BLACK
6
CONTINUOUS
10
119.719
20
-91.2263
11
119.756
21
-91.0426
0
LINE
8
BLACK
6
CONTINUOUS
10
119.756
20
-91.0426
11
119.827
21
-90.8695
0
LINE
8
BLACK
6
CONTINUOUS
10
119.827
20
-90.8695
11
119.931
21
-90.7138
0
LINE
8
BLACK
6
CONTINUOUS
10
119.931
20
-90.7138
11
119.931
21
-90.7138
0
LINE
8
BLACK
6
CONTINUOUS
10
119.931
20
-90.7138
11
120.064
21
-90.5813
0
LINE
8
BLACK
6
CONTINUOUS
10
120.064
20
-90.5813
11
120.22
21
-90.4772
0
LINE
8
BLACK
6
CONTINUOUS
10
120.22
20
-90.4772
11
120.22
21
-90.4772
0
LINE
8
BLACK
6
CONTINUOUS
10
120.22
20
-90.4772
11
120.393
21
-90.4055
0
LINE
8
BLACK
6
CONTINUOUS
10
120.393
20
-90.4055
11
120.576
21
-90.369
0
LINE
8
BLACK
6
CONTINUOUS
10
120.576
20
-90.369
11
120.764
21
-90.369
0
LINE
8
BLACK
6
CONTINUOUS
10
120.764
20
-90.369
11
120.947
21
-90.4055
0
LINE
8
BLACK
6
CONTINUOUS
10
132.747
20
-87.9355
11
132.92
21
-88.0072
0
LINE
8
BLACK
6
CONTINUOUS
10
132.92
20
-88.0072
11
132.92
21
-88.0072
0
LINE
8
BLACK
6
CONTINUOUS
10
132.92
20
-88.0072
11
133.076
21
-88.1113
0
LINE
8
BLACK
6
CONTINUOUS
10
133.076
20
-88.1113
11
133.209
21
-88.2438
0
LINE
8
BLACK
6
CONTINUOUS
10
133.209
20
-88.2438
11
133.209
21
-88.2438
0
LINE
8
BLACK
6
CONTINUOUS
10
133.209
20
-88.2438
11
133.313
21
-88.3995
0
LINE
8
BLACK
6
CONTINUOUS
10
133.313
20
-88.3995
11
133.384
21
-88.5726
0
LINE
8
BLACK
6
CONTINUOUS
10
133.384
20
-88.5726
11
133.421
21
-88.7563
0
LINE
8
BLACK
6
CONTINUOUS
10
133.421
20
-88.7563
11
133.421
21
-88.9437
0
LINE
8
BLACK
6
CONTINUOUS
10
133.421
20
-88.9437
11
133.384
21
-89.1274
0
LINE
8
BLACK
6
CONTINUOUS
10
133.384
20
-89.1274
11
133.313
21
-89.3005
0
LINE
8
BLACK
6
CONTINUOUS
10
133.313
20
-89.3005
11
133.313
21
-89.3005
0
LINE
8
BLACK
6
CONTINUOUS
10
133.313
20
-89.3005
11
133.209
21
-89.4562
0
LINE
8
BLACK
6
CONTINUOUS
10
133.209
20
-89.4562
11
133.076
21
-89.5887
0
LINE
8
BLACK
6
CONTINUOUS
10
133.076
20
-89.5887
11
132.998
21
-89.6411
0
LINE
8
BLACK
6
CONTINUOUS
10
132.998
20
-89.6411
11
132.92
21
-89.6928
0
LINE
8
BLACK
6
CONTINUOUS
10
132.92
20
-89.6928
11
132.747
21
-89.7645
0
LINE
8
BLACK
6
CONTINUOUS
10
132.747
20
-89.7645
11
132.564
21
-89.801
0
LINE
8
BLACK
6
CONTINUOUS
10
132.564
20
-89.801
11
132.376
21
-89.801
0
LINE
8
BLACK
6
CONTINUOUS
10
132.376
20
-89.801
11
132.193
21
-89.7645
0
LINE
8
BLACK
6
CONTINUOUS
10
132.193
20
-89.7645
11
132.02
21
-89.6928
0
LINE
8
BLACK
6
CONTINUOUS
10
132.02
20
-89.6928
11
131.942
21
-89.6411
0
LINE
8
BLACK
6
CONTINUOUS
10
131.942
20
-89.6411
11
131.864
21
-89.5887
0
LINE
8
BLACK
6
CONTINUOUS
10
131.864
20
-89.5887
11
131.731
21
-89.4562
0
LINE
8
BLACK
6
CONTINUOUS
10
131.731
20
-89.4562
11
131.627
21
-89.3005
0
LINE
8
BLACK
6
CONTINUOUS
10
131.627
20
-89.3005
11
131.627
21
-89.3005
0
LINE
8
BLACK
6
CONTINUOUS
10
131.627
20
-89.3005
11
131.556
21
-89.1274
0
LINE
8
BLACK
6
CONTINUOUS
10
131.556
20
-89.1274
11
131.519
21
-88.9437
0
LINE
8
BLACK
6
CONTINUOUS
10
131.519
20
-88.9437
11
131.519
21
-88.7563
0
LINE
8
BLACK
6
CONTINUOUS
10
131.519
20
-88.7563
11
131.556
21
-88.5726
0
LINE
8
BLACK
6
CONTINUOUS
10
131.556
20
-88.5726
11
131.627
21
-88.3995
0
LINE
8
BLACK
6
CONTINUOUS
10
131.627
20
-88.3995
11
131.731
21
-88.2438
0
LINE
8
BLACK
6
CONTINUOUS
10
131.731
20
-88.2438
11
131.731
21
-88.2438
0
LINE
8
BLACK
6
CONTINUOUS
10
131.731
20
-88.2438
11
131.864
21
-88.1113
0
LINE
8
BLACK
6
CONTINUOUS
10
131.864
20
-88.1113
11
132.02
21
-88.0072
0
LINE
8
BLACK
6
CONTINUOUS
10
132.02
20
-88.0072
11
132.02
21
-88.0072
0
LINE
8
BLACK
6
CONTINUOUS
10
132.02
20
-88.0072
11
132.193
21
-87.9355
0
LINE
8
BLACK
6
CONTINUOUS
10
132.193
20
-87.9355
11
132.376
21
-87.899
0
LINE
8
BLACK
6
CONTINUOUS
10
132.376
20
-87.899
11
132.564
21
-87.899
0
LINE
8
BLACK
6
CONTINUOUS
10
132.564
20
-87.899
11
132.747
21
-87.9355
0
LINE
8
BLACK
6
CONTINUOUS
10
130.207
20
-87.9355
11
130.38
21
-88.0072
0
LINE
8
BLACK
6
CONTINUOUS
10
130.38
20
-88.0072
11
130.38
21
-88.0072
0
LINE
8
BLACK
6
CONTINUOUS
10
130.38
20
-88.0072
11
130.536
21
-88.1113
0
LINE
8
BLACK
6
CONTINUOUS
10
130.536
20
-88.1113
11
130.669
21
-88.2438
0
LINE
8
BLACK
6
CONTINUOUS
10
130.669
20
-88.2438
11
130.669
21
-88.2438
0
LINE
8
BLACK
6
CONTINUOUS
10
130.669
20
-88.2438
11
130.773
21
-88.3995
0
LINE
8
BLACK
6
CONTINUOUS
10
130.773
20
-88.3995
11
130.844
21
-88.5726
0
LINE
8
BLACK
6
CONTINUOUS
10
130.844
20
-88.5726
11
130.881
21
-88.7563
0
LINE
8
BLACK
6
CONTINUOUS
10
130.881
20
-88.7563
11
130.881
21
-88.9437
0
LINE
8
BLACK
6
CONTINUOUS
10
130.881
20
-88.9437
11
130.844
21
-89.1274
0
LINE
8
BLACK
6
CONTINUOUS
10
130.844
20
-89.1274
11
130.773
21
-89.3005
0
LINE
8
BLACK
6
CONTINUOUS
10
130.773
20
-89.3005
11
130.773
21
-89.3005
0
LINE
8
BLACK
6
CONTINUOUS
10
130.773
20
-89.3005
11
130.669
21
-89.4562
0
LINE
8
BLACK
6
CONTINUOUS
10
130.669
20
-89.4562
11
130.536
21
-89.5887
0
LINE
8
BLACK
6
CONTINUOUS
10
130.536
20
-89.5887
11
130.458
21
-89.6411
0
LINE
8
BLACK
6
CONTINUOUS
10
130.458
20
-89.6411
11
130.38
21
-89.6928
0
LINE
8
BLACK
6
CONTINUOUS
10
130.38
20
-89.6928
11
130.207
21
-89.7645
0
LINE
8
BLACK
6
CONTINUOUS
10
130.207
20
-89.7645
11
130.024
21
-89.801
0
LINE
8
BLACK
6
CONTINUOUS
10
130.024
20
-89.801
11
129.836
21
-89.801
0
LINE
8
BLACK
6
CONTINUOUS
10
129.836
20
-89.801
11
129.653
21
-89.7645
0
LINE
8
BLACK
6
CONTINUOUS
10
129.653
20
-89.7645
11
129.48
21
-89.6928
0
LINE
8
BLACK
6
CONTINUOUS
10
129.48
20
-89.6928
11
129.402
21
-89.6411
0
LINE
8
BLACK
6
CONTINUOUS
10
129.402
20
-89.6411
11
129.324
21
-89.5887
0
LINE
8
BLACK
6
CONTINUOUS
10
129.324
20
-89.5887
11
129.191
21
-89.4562
0
LINE
8
BLACK
6
CONTINUOUS
10
129.191
20
-89.4562
11
129.087
21
-89.3005
0
LINE
8
BLACK
6
CONTINUOUS
10
129.087
20
-89.3005
11
129.087
21
-89.3005
0
LINE
8
BLACK
6
CONTINUOUS
10
129.087
20
-89.3005
11
129.016
21
-89.1274
0
LINE
8
BLACK
6
CONTINUOUS
10
129.016
20
-89.1274
11
128.979
21
-88.9437
0
LINE
8
BLACK
6
CONTINUOUS
10
128.979
20
-88.9437
11
128.979
21
-88.7563
0
LINE
8
BLACK
6
CONTINUOUS
10
128.979
20
-88.7563
11
129.016
21
-88.5726
0
LINE
8
BLACK
6
CONTINUOUS
10
129.016
20
-88.5726
11
129.087
21
-88.3995
0
LINE
8
BLACK
6
CONTINUOUS
10
129.087
20
-88.3995
11
129.191
21
-88.2438
0
LINE
8
BLACK
6
CONTINUOUS
10
129.191
20
-88.2438
11
129.191
21
-88.2438
0
LINE
8
BLACK
6
CONTINUOUS
10
129.191
20
-88.2438
11
129.324
21
-88.1113
0
LINE
8
BLACK
6
CONTINUOUS
10
129.324
20
-88.1113
11
129.48
21
-88.0072
0
LINE
8
BLACK
6
CONTINUOUS
10
129.48
20
-88.0072
11
129.48
21
-88.0072
0
LINE
8
BLACK
6
CONTINUOUS
10
129.48
20
-88.0072
11
129.653
21
-87.9355
0
LINE
8
BLACK
6
CONTINUOUS
10
129.653
20
-87.9355
11
129.836
21
-87.899
0
LINE
8
BLACK
6
CONTINUOUS
10
129.836
20
-87.899
11
130.024
21
-87.899
0
LINE
8
BLACK
6
CONTINUOUS
10
130.024
20
-87.899
11
130.207
21
-87.9355
0
LINE
8
BLACK
6
CONTINUOUS
10
132.747
20
-85.3955
11
132.92
21
-85.4672
0
LINE
8
BLACK
6
CONTINUOUS
10
132.92
20
-85.4672
11
132.92
21
-85.4672
0
LINE
8
BLACK
6
CONTINUOUS
10
132.92
20
-85.4672
11
133.076
21
-85.5713
0
LINE
8
BLACK
6
CONTINUOUS
10
133.076
20
-85.5713
11
133.209
21
-85.7038
0
LINE
8
BLACK
6
CONTINUOUS
10
133.209
20
-85.7038
11
133.209
21
-85.7038
0
LINE
8
BLACK
6
CONTINUOUS
10
133.209
20
-85.7038
11
133.313
21
-85.8595
0
LINE
8
BLACK
6
CONTINUOUS
10
133.313
20
-85.8595
11
133.384
21
-86.0326
0
LINE
8
BLACK
6
CONTINUOUS
10
133.384
20
-86.0326
11
133.421
21
-86.2163
0
LINE
8
BLACK
6
CONTINUOUS
10
133.421
20
-86.2163
11
133.421
21
-86.4037
0
LINE
8
BLACK
6
CONTINUOUS
10
133.421
20
-86.4037
11
133.384
21
-86.5874
0
LINE
8
BLACK
6
CONTINUOUS
10
133.384
20
-86.5874
11
133.313
21
-86.7605
0
LINE
8
BLACK
6
CONTINUOUS
10
133.313
20
-86.7605
11
133.313
21
-86.7605
0
LINE
8
BLACK
6
CONTINUOUS
10
133.313
20
-86.7605
11
133.209
21
-86.9162
0
LINE
8
BLACK
6
CONTINUOUS
10
133.209
20
-86.9162
11
133.076
21
-87.0487
0
LINE
8
BLACK
6
CONTINUOUS
10
133.076
20
-87.0487
11
132.998
21
-87.1011
0
LINE
8
BLACK
6
CONTINUOUS
10
132.998
20
-87.1011
11
132.92
21
-87.1528
0
LINE
8
BLACK
6
CONTINUOUS
10
132.92
20
-87.1528
11
132.747
21
-87.2245
0
LINE
8
BLACK
6
CONTINUOUS
10
132.747
20
-87.2245
11
132.564
21
-87.261
0
LINE
8
BLACK
6
CONTINUOUS
10
132.564
20
-87.261
11
132.376
21
-87.261
0
LINE
8
BLACK
6
CONTINUOUS
10
132.376
20
-87.261
11
132.193
21
-87.2245
0
LINE
8
BLACK
6
CONTINUOUS
10
132.193
20
-87.2245
11
132.02
21
-87.1528
0
LINE
8
BLACK
6
CONTINUOUS
10
132.02
20
-87.1528
11
131.942
21
-87.1011
0
LINE
8
BLACK
6
CONTINUOUS
10
131.942
20
-87.1011
11
131.864
21
-87.0487
0
LINE
8
BLACK
6
CONTINUOUS
10
131.864
20
-87.0487
11
131.731
21
-86.9162
0
LINE
8
BLACK
6
CONTINUOUS
10
131.731
20
-86.9162
11
131.627
21
-86.7605
0
LINE
8
BLACK
6
CONTINUOUS
10
131.627
20
-86.7605
11
131.627
21
-86.7605
0
LINE
8
BLACK
6
CONTINUOUS
10
131.627
20
-86.7605
11
131.556
21
-86.5874
0
LINE
8
BLACK
6
CONTINUOUS
10
131.556
20
-86.5874
11
131.519
21
-86.4037
0
LINE
8
BLACK
6
CONTINUOUS
10
131.519
20
-86.4037
11
131.519
21
-86.2163
0
LINE
8
BLACK
6
CONTINUOUS
10
131.519
20
-86.2163
11
131.556
21
-86.0326
0
LINE
8
BLACK
6
CONTINUOUS
10
131.556
20
-86.0326
11
131.627
21
-85.8595
0
LINE
8
BLACK
6
CONTINUOUS
10
131.627
20
-85.8595
11
131.731
21
-85.7038
0
LINE
8
BLACK
6
CONTINUOUS
10
131.731
20
-85.7038
11
131.731
21
-85.7038
0
LINE
8
BLACK
6
CONTINUOUS
10
131.731
20
-85.7038
11
131.864
21
-85.5713
0
LINE
8
BLACK
6
CONTINUOUS
10
131.864
20
-85.5713
11
132.02
21
-85.4672
0
LINE
8
BLACK
6
CONTINUOUS
10
132.02
20
-85.4672
11
132.02
21
-85.4672
0
LINE
8
BLACK
6
CONTINUOUS
10
132.02
20
-85.4672
11
132.193
21
-85.3955
0
LINE
8
BLACK
6
CONTINUOUS
10
132.193
20
-85.3955
11
132.376
21
-85.359
0
LINE
8
BLACK
6
CONTINUOUS
10
132.376
20
-85.359
11
132.564
21
-85.359
0
LINE
8
BLACK
6
CONTINUOUS
10
132.564
20
-85.359
11
132.747
21
-85.3955
0
LINE
8
BLACK
6
CONTINUOUS
10
130.207
20
-85.3955
11
130.38
21
-85.4672
0
LINE
8
BLACK
6
CONTINUOUS
10
130.38
20
-85.4672
11
130.38
21
-85.4672
0
LINE
8
BLACK
6
CONTINUOUS
10
130.38
20
-85.4672
11
130.536
21
-85.5713
0
LINE
8
BLACK
6
CONTINUOUS
10
130.536
20
-85.5713
11
130.669
21
-85.7038
0
LINE
8
BLACK
6
CONTINUOUS
10
130.669
20
-85.7038
11
130.669
21
-85.7038
0
LINE
8
BLACK
6
CONTINUOUS
10
130.669
20
-85.7038
11
130.773
21
-85.8595
0
LINE
8
BLACK
6
CONTINUOUS
10
130.773
20
-85.8595
11
130.844
21
-86.0326
0
LINE
8
BLACK
6
CONTINUOUS
10
130.844
20
-86.0326
11
130.881
21
-86.2163
0
LINE
8
BLACK
6
CONTINUOUS
10
130.881
20
-86.2163
11
130.881
21
-86.4037
0
LINE
8
BLACK
6
CONTINUOUS
10
130.881
20
-86.4037
11
130.844
21
-86.5874
0
LINE
8
BLACK
6
CONTINUOUS
10
130.844
20
-86.5874
11
130.773
21
-86.7605
0
LINE
8
BLACK
6
CONTINUOUS
10
130.773
20
-86.7605
11
130.773
21
-86.7605
0
LINE
8
BLACK
6
CONTINUOUS
10
130.773
20
-86.7605
11
130.669
21
-86.9162
0
LINE
8
BLACK
6
CONTINUOUS
10
130.669
20
-86.9162
11
130.536
21
-87.0487
0
LINE
8
BLACK
6
CONTINUOUS
10
130.536
20
-87.0487
11
130.458
21
-87.1011
0
LINE
8
BLACK
6
CONTINUOUS
10
130.458
20
-87.1011
11
130.38
21
-87.1528
0
LINE
8
BLACK
6
CONTINUOUS
10
130.38
20
-87.1528
11
130.207
21
-87.2245
0
LINE
8
BLACK
6
CONTINUOUS
10
130.207
20
-87.2245
11
130.024
21
-87.261
0
LINE
8
BLACK
6
CONTINUOUS
10
130.024
20
-87.261
11
129.836
21
-87.261
0
LINE
8
BLACK
6
CONTINUOUS
10
129.836
20
-87.261
11
129.653
21
-87.2245
0
LINE
8
BLACK
6
CONTINUOUS
10
129.653
20
-87.2245
11
129.48
21
-87.1528
0
LINE
8
BLACK
6
CONTINUOUS
10
129.48
20
-87.1528
11
129.402
21
-87.1011
0
LINE
8
BLACK
6
CONTINUOUS
10
129.402
20
-87.1011
11
129.324
21
-87.0487
0
LINE
8
BLACK
6
CONTINUOUS
10
129.324
20
-87.0487
11
129.191
21
-86.9162
0
LINE
8
BLACK
6
CONTINUOUS
10
129.191
20
-86.9162
11
129.087
21
-86.7605
0
LINE
8
BLACK
6
CONTINUOUS
10
129.087
20
-86.7605
11
129.087
21
-86.7605
0
LINE
8
BLACK
6
CONTINUOUS
10
129.087
20
-86.7605
11
129.016
21
-86.5874
0
LINE
8
BLACK
6
CONTINUOUS
10
129.016
20
-86.5874
11
128.979
21
-86.4037
0
LINE
8
BLACK
6
CONTINUOUS
10
128.979
20
-86.4037
11
128.979
21
-86.2163
0
LINE
8
BLACK
6
CONTINUOUS
10
128.979
20
-86.2163
11
129.016
21
-86.0326
0
LINE
8
BLACK
6
CONTINUOUS
10
129.016
20
-86.0326
11
129.087
21
-85.8595
0
LINE
8
BLACK
6
CONTINUOUS
10
129.087
20
-85.8595
11
129.191
21
-85.7038
0
LINE
8
BLACK
6
CONTINUOUS
10
129.191
20
-85.7038
11
129.191
21
-85.7038
0
LINE
8
BLACK
6
CONTINUOUS
10
129.191
20
-85.7038
11
129.324
21
-85.5713
0
LINE
8
BLACK
6
CONTINUOUS
10
129.324
20
-85.5713
11
129.48
21
-85.4672
0
LINE
8
BLACK
6
CONTINUOUS
10
129.48
20
-85.4672
11
129.48
21
-85.4672
0
LINE
8
BLACK
6
CONTINUOUS
10
129.48
20
-85.4672
11
129.653
21
-85.3955
0
LINE
8
BLACK
6
CONTINUOUS
10
129.653
20
-85.3955
11
129.836
21
-85.359
0
LINE
8
BLACK
6
CONTINUOUS
10
129.836
20
-85.359
11
130.024
21
-85.359
0
LINE
8
BLACK
6
CONTINUOUS
10
130.024
20
-85.359
11
130.207
21
-85.3955
0
LINE
8
BLACK
6
CONTINUOUS
10
132.747
20
-82.8555
11
132.92
21
-82.9272
0
LINE
8
BLACK
6
CONTINUOUS
10
132.92
20
-82.9272
11
132.92
21
-82.9272
0
LINE
8
BLACK
6
CONTINUOUS
10
132.92
20
-82.9272
11
133.076
21
-83.0313
0
LINE
8
BLACK
6
CONTINUOUS
10
133.076
20
-83.0313
11
133.209
21
-83.1638
0
LINE
8
BLACK
6
CONTINUOUS
10
133.209
20
-83.1638
11
133.209
21
-83.1638
0
LINE
8
BLACK
6
CONTINUOUS
10
133.209
20
-83.1638
11
133.313
21
-83.3195
0
LINE
8
BLACK
6
CONTINUOUS
10
133.313
20
-83.3195
11
133.384
21
-83.4926
0
LINE
8
BLACK
6
CONTINUOUS
10
133.384
20
-83.4926
11
133.421
21
-83.6763
0
LINE
8
BLACK
6
CONTINUOUS
10
133.421
20
-83.6763
11
133.421
21
-83.8637
0
LINE
8
BLACK
6
CONTINUOUS
10
133.421
20
-83.8637
11
133.384
21
-84.0474
0
LINE
8
BLACK
6
CONTINUOUS
10
133.384
20
-84.0474
11
133.313
21
-84.2205
0
LINE
8
BLACK
6
CONTINUOUS
10
133.313
20
-84.2205
11
133.313
21
-84.2205
0
LINE
8
BLACK
6
CONTINUOUS
10
133.313
20
-84.2205
11
133.209
21
-84.3762
0
LINE
8
BLACK
6
CONTINUOUS
10
133.209
20
-84.3762
11
133.076
21
-84.5087
0
LINE
8
BLACK
6
CONTINUOUS
10
133.076
20
-84.5087
11
132.998
21
-84.5611
0
LINE
8
BLACK
6
CONTINUOUS
10
132.998
20
-84.5611
11
132.92
21
-84.6128
0
LINE
8
BLACK
6
CONTINUOUS
10
132.92
20
-84.6128
11
132.747
21
-84.6845
0
LINE
8
BLACK
6
CONTINUOUS
10
132.747
20
-84.6845
11
132.564
21
-84.721
0
LINE
8
BLACK
6
CONTINUOUS
10
132.564
20
-84.721
11
132.376
21
-84.721
0
LINE
8
BLACK
6
CONTINUOUS
10
132.376
20
-84.721
11
132.193
21
-84.6845
0
LINE
8
BLACK
6
CONTINUOUS
10
132.193
20
-84.6845
11
132.02
21
-84.6128
0
LINE
8
BLACK
6
CONTINUOUS
10
132.02
20
-84.6128
11
131.942
21
-84.5611
0
LINE
8
BLACK
6
CONTINUOUS
10
131.942
20
-84.5611
11
131.864
21
-84.5087
0
LINE
8
BLACK
6
CONTINUOUS
10
131.864
20
-84.5087
11
131.731
21
-84.3762
0
LINE
8
BLACK
6
CONTINUOUS
10
131.731
20
-84.3762
11
131.627
21
-84.2205
0
LINE
8
BLACK
6
CONTINUOUS
10
131.627
20
-84.2205
11
131.627
21
-84.2205
0
LINE
8
BLACK
6
CONTINUOUS
10
131.627
20
-84.2205
11
131.556
21
-84.0474
0
LINE
8
BLACK
6
CONTINUOUS
10
131.556
20
-84.0474
11
131.519
21
-83.8637
0
LINE
8
BLACK
6
CONTINUOUS
10
131.519
20
-83.8637
11
131.519
21
-83.6763
0
LINE
8
BLACK
6
CONTINUOUS
10
131.519
20
-83.6763
11
131.556
21
-83.4926
0
LINE
8
BLACK
6
CONTINUOUS
10
131.556
20
-83.4926
11
131.627
21
-83.3195
0
LINE
8
BLACK
6
CONTINUOUS
10
131.627
20
-83.3195
11
131.731
21
-83.1638
0
LINE
8
BLACK
6
CONTINUOUS
10
131.731
20
-83.1638
11
131.731
21
-83.1638
0
LINE
8
BLACK
6
CONTINUOUS
10
131.731
20
-83.1638
11
131.864
21
-83.0313
0
LINE
8
BLACK
6
CONTINUOUS
10
131.864
20
-83.0313
11
132.02
21
-82.9272
0
LINE
8
BLACK
6
CONTINUOUS
10
132.02
20
-82.9272
11
132.02
21
-82.9272
0
LINE
8
BLACK
6
CONTINUOUS
10
132.02
20
-82.9272
11
132.193
21
-82.8555
0
LINE
8
BLACK
6
CONTINUOUS
10
132.193
20
-82.8555
11
132.376
21
-82.819
0
LINE
8
BLACK
6
CONTINUOUS
10
132.376
20
-82.819
11
132.564
21
-82.819
0
LINE
8
BLACK
6
CONTINUOUS
10
132.564
20
-82.819
11
132.747
21
-82.8555
0
LINE
8
BLACK
6
CONTINUOUS
10
130.881
20
-84.721
11
128.979
21
-84.721
0
LINE
8
BLACK
6
CONTINUOUS
10
128.979
20
-84.721
11
128.979
21
-82.819
0
LINE
8
BLACK
6
CONTINUOUS
10
128.979
20
-82.819
11
130.881
21
-82.819
0
LINE
8
BLACK
6
CONTINUOUS
10
130.881
20
-82.819
11
130.881
21
-84.721
  0
ENDSEC
  0
EOF
