  0
SECTION
  2
HEADER
  9
$ANGBASE
  50
0.0
  9
$ANGDIR
  70
  1
  9
$MEASUREMENT
  70
0
  0
ENDSEC
  0
SECTION
  2
TABLES
  0
TABLE
  2
LTYPE
  70
4
  0
LTYPE
  5
40F
  2
CONTINUOUS
  70
0
  3
Solid line
  72
65
  73
0
  40
0.0
  0
LTYPE
  5
410
  2
DASHDOT
 70
0
  3
Dash Dot ____ _ ____ _
 72
65
 73
4
 40
2.0
 49
1.25
 49
-0.25
 49
0.25
 49
-0.25
  0
LTYPE
  5
411
  2
DASHED
 70
0
  3
Dashed __ __ __ __ __
 72
65
 73
2
 40
0.75
 49
0.5
 49
-0.25
  0
LTYPE
  5
43B
  2
DOTTED
 70
0
  3
Dotted .  .  .  .
 72
65
 73
2
 40
0.2
 49
0.0
 49
-0.2
  0
ENDTAB
  0
TABLE
  2
STYLE
  70
4
  0
STYLE
  2
KICAD
  70
0
  40
0
  41
1
  42
1
  50
0
  71
0
  3
isocp.shx
  0
STYLE
  2
KICADB
  70
0
  40
0
  41
1
  42
1
  50
0
  71
0
  3
isocp.shx
  0
STYLE
  2
KICADI
  70
0
  40
0
  41
1
  42
1
  50
15
  71
0
  3
isocp.shx
  0
STYLE
  2
KICADBI
  70
0
  40
0
  41
1
  42
1
  50
15
  71
0
  3
isocp.shx
  0
ENDTAB
  0
TABLE
  2
LAYER
  70
30
  0
LAYER
  2
BLACK
  70
0
  62
7
  6
CONTINUOUS
  0
LAYER
  2
GRAY1
  70
0
  62
251
  6
CONTINUOUS
  0
LAYER
  2
GRAY2
  70
0
  62
8
  6
CONTINUOUS
  0
LAYER
  2
GRAY3
  70
0
  62
9
  6
CONTINUOUS
  0
LAYER
  2
WHITE
  70
0
  62
7
  6
CONTINUOUS
  0
LAYER
  2
LYELLOW
  70
0
  62
51
  6
CONTINUOUS
  0
LAYER
  2
BLUE1
  70
0
  62
178
  6
CONTINUOUS
  0
LAYER
  2
GREEN1
  70
0
  62
98
  6
CONTINUOUS
  0
LAYER
  2
CYAN1
  70
0
  62
138
  6
CONTINUOUS
  0
LAYER
  2
RED1
  70
0
  62
18
  6
CONTINUOUS
  0
LAYER
  2
MAGENTA1
  70
0
  62
228
  6
CONTINUOUS
  0
LAYER
  2
BROWN1
  70
0
  62
58
  6
CONTINUOUS
  0
LAYER
  2
BLUE2
  70
0
  62
5
  6
CONTINUOUS
  0
LAYER
  2
GREEN2
  70
0
  62
3
  6
CONTINUOUS
  0
LAYER
  2
CYAN2
  70
0
  62
4
  6
CONTINUOUS
  0
LAYER
  2
RED2
  70
0
  62
1
  6
CONTINUOUS
  0
LAYER
  2
MAGENTA2
  70
0
  62
6
  6
CONTINUOUS
  0
LAYER
  2
BROWN2
  70
0
  62
54
  6
CONTINUOUS
  0
LAYER
  2
BLUE3
  70
0
  62
171
  6
CONTINUOUS
  0
LAYER
  2
GREEN3
  70
0
  62
91
  6
CONTINUOUS
  0
LAYER
  2
CYAN3
  70
0
  62
131
  6
CONTINUOUS
  0
LAYER
  2
RED3
  70
0
  62
11
  6
CONTINUOUS
  0
LAYER
  2
MAGENTA3
  70
0
  62
221
  6
CONTINUOUS
  0
LAYER
  2
YELLOW3
  70
0
  62
2
  6
CONTINUOUS
  0
LAYER
  2
BLUE4
  70
0
  62
5
  6
CONTINUOUS
  0
LAYER
  2
GREEN4
  70
0
  62
3
  6
CONTINUOUS
  0
LAYER
  2
CYAN4
  70
0
  62
4
  6
CONTINUOUS
  0
LAYER
  2
RED4
  70
0
  62
1
  6
CONTINUOUS
  0
LAYER
  2
MAGENTA4
  70
0
  62
6
  6
CONTINUOUS
  0
LAYER
  2
YELLOW4
  70
0
  62
2
  6
CONTINUOUS
  0
ENDTAB
  0
ENDSEC
  0
SECTION
  2
ENTITIES
0
LINE
8
BLACK
6
CONTINUOUS
10
137.001
20
-76.975
11
137.005
21
-76.9754
0
LINE
8
BLACK
6
CONTINUOUS
10
137.005
20
-76.9754
11
137.01
21
-76.9768
0
LINE
8
BLACK
6
CONTINUOUS
10
137.01
20
-76.9768
11
137.014
21
-76.9791
0
LINE
8
BLACK
6
CONTINUOUS
10
137.014
20
-76.9791
11
137.018
21
-76.9822
0
LINE
8
BLACK
6
CONTINUOUS
10
137.018
20
-76.9822
11
137.021
21
-76.986
0
LINE
8
BLACK
6
CONTINUOUS
10
137.021
20
-76.986
11
137.023
21
-76.9904
0
LINE
8
BLACK
6
CONTINUOUS
10
137.023
20
-76.9904
11
137.025
21
-76.9951
0
LINE
8
BLACK
6
CONTINUOUS
10
137.025
20
-76.9951
11
137.025
21
-77
0
LINE
8
BLACK
6
CONTINUOUS
10
137.025
20
-77
11
137.025
21
-77.0012
0
LINE
8
BLACK
6
CONTINUOUS
10
137.025
20
-77.0012
11
137.025
21
-112.899
0
LINE
8
BLACK
6
CONTINUOUS
10
137.025
20
-112.899
11
137.025
21
-112.9
0
LINE
8
BLACK
6
CONTINUOUS
10
137.025
20
-112.9
11
137.025
21
-112.905
0
LINE
8
BLACK
6
CONTINUOUS
10
137.025
20
-112.905
11
137.023
21
-112.91
0
LINE
8
BLACK
6
CONTINUOUS
10
137.023
20
-112.91
11
137.021
21
-112.914
0
LINE
8
BLACK
6
CONTINUOUS
10
137.021
20
-112.914
11
137.018
21
-112.918
0
LINE
8
BLACK
6
CONTINUOUS
10
137.018
20
-112.918
11
137.014
21
-112.921
0
LINE
8
BLACK
6
CONTINUOUS
10
137.014
20
-112.921
11
137.01
21
-112.923
0
LINE
8
BLACK
6
CONTINUOUS
10
137.01
20
-112.923
11
137.005
21
-112.925
0
LINE
8
BLACK
6
CONTINUOUS
10
137.005
20
-112.925
11
137.001
21
-112.925
0
LINE
8
BLACK
6
CONTINUOUS
10
137.001
20
-112.925
11
137.001
21
-112.925
0
LINE
8
BLACK
6
CONTINUOUS
10
137.001
20
-112.925
11
137
21
-112.925
0
LINE
8
BLACK
6
CONTINUOUS
10
137
20
-112.925
11
136.999
21
-112.925
0
LINE
8
BLACK
6
CONTINUOUS
10
136.999
20
-112.925
11
111.001
21
-112.925
0
LINE
8
BLACK
6
CONTINUOUS
10
111.001
20
-112.925
11
111
21
-112.925
0
LINE
8
BLACK
6
CONTINUOUS
10
111
20
-112.925
11
110.999
21
-112.925
0
LINE
8
BLACK
6
CONTINUOUS
10
110.999
20
-112.925
11
110.999
21
-112.925
0
LINE
8
BLACK
6
CONTINUOUS
10
110.999
20
-112.925
11
110.995
21
-112.925
0
LINE
8
BLACK
6
CONTINUOUS
10
110.995
20
-112.925
11
110.99
21
-112.923
0
LINE
8
BLACK
6
CONTINUOUS
10
110.99
20
-112.923
11
110.986
21
-112.921
0
LINE
8
BLACK
6
CONTINUOUS
10
110.986
20
-112.921
11
110.982
21
-112.918
0
LINE
8
BLACK
6
CONTINUOUS
10
110.982
20
-112.918
11
110.979
21
-112.914
0
LINE
8
BLACK
6
CONTINUOUS
10
110.979
20
-112.914
11
110.977
21
-112.91
0
LINE
8
BLACK
6
CONTINUOUS
10
110.977
20
-112.91
11
110.975
21
-112.905
0
LINE
8
BLACK
6
CONTINUOUS
10
110.975
20
-112.905
11
110.975
21
-112.9
0
LINE
8
BLACK
6
CONTINUOUS
10
110.975
20
-112.9
11
110.975
21
-112.899
0
LINE
8
BLACK
6
CONTINUOUS
10
110.975
20
-112.899
11
110.975
21
-77.0012
0
LINE
8
BLACK
6
CONTINUOUS
10
110.975
20
-77.0012
11
110.975
21
-77
0
LINE
8
BLACK
6
CONTINUOUS
10
110.975
20
-77
11
110.975
21
-76.9951
0
LINE
8
BLACK
6
CONTINUOUS
10
110.975
20
-76.9951
11
110.977
21
-76.9904
0
LINE
8
BLACK
6
CONTINUOUS
10
110.977
20
-76.9904
11
110.979
21
-76.986
0
LINE
8
BLACK
6
CONTINUOUS
10
110.979
20
-76.986
11
110.982
21
-76.9822
0
LINE
8
BLACK
6
CONTINUOUS
10
110.982
20
-76.9822
11
110.986
21
-76.9791
0
LINE
8
BLACK
6
CONTINUOUS
10
110.986
20
-76.9791
11
110.99
21
-76.9768
0
LINE
8
BLACK
6
CONTINUOUS
10
110.99
20
-76.9768
11
110.995
21
-76.9754
0
LINE
8
BLACK
6
CONTINUOUS
10
110.995
20
-76.9754
11
110.999
21
-76.975
0
LINE
8
BLACK
6
CONTINUOUS
10
110.999
20
-76.975
11
111
21
-76.9749
0
LINE
8
BLACK
6
CONTINUOUS
10
111
20
-76.9749
11
111.001
21
-76.975
0
LINE
8
BLACK
6
CONTINUOUS
10
111.001
20
-76.975
11
136.999
21
-76.975
0
LINE
8
BLACK
6
CONTINUOUS
10
136.999
20
-76.975
11
137
21
-76.9749
0
LINE
8
BLACK
6
CONTINUOUS
10
137
20
-76.9749
11
137.001
21
-76.975
0
LINE
8
BLACK
6
CONTINUOUS
10
111.025
20
-77.025
11
111.025
21
-112.875
0
LINE
8
BLACK
6
CONTINUOUS
10
111.025
20
-112.875
11
136.975
21
-112.875
0
LINE
8
BLACK
6
CONTINUOUS
10
136.975
20
-112.875
11
136.975
21
-77.025
0
LINE
8
BLACK
6
CONTINUOUS
10
136.975
20
-77.025
11
111.025
21
-77.025
  0
ENDSEC
  0
EOF
